<?xml version="1.0" encoding="utf-8"?>
	<!-- Generator: Adobe Illustrator 24.0.1, SVG Export Plug-In . SVG Version: 6.00 Build 0)  -->
	<svg version="1.1" xmlns="http://www.w3.org/2000/svg" xmlns:xlink="http://www.w3.org/1999/xlink" x="0px" y="0px"
		viewBox="0 0 750 750" style="enable-background:new 0 0 750 750;" xml:space="preserve">
	<style type="text/css">
		.st0{clip-path:url(#SVGID_2_);}
		.st1{fill:#D0D89E;}
		.st2{clip-path:url(#SVGID_4_);}
		.st3{clip-path:url(#SVGID_6_);}
		.st4{clip-path:url(#SVGID_8_);}
		.st5{clip-path:url(#SVGID_10_);}
		.st6{clip-path:url(#SVGID_12_);}
		.st7{clip-path:url(#SVGID_14_);}
		.st8{clip-path:url(#SVGID_16_);}
		.st9{clip-path:url(#SVGID_18_);}
		.st10{clip-path:url(#SVGID_20_);}
		.st11{clip-path:url(#SVGID_22_);}
		.st12{clip-path:url(#SVGID_24_);}
		.st13{clip-path:url(#SVGID_26_);}
		.st14{clip-path:url(#SVGID_28_);}
		.st15{fill:#665D57;}
		.st16{clip-path:url(#SVGID_30_);fill:none;stroke:#665D57;stroke-width:7;stroke-miterlimit:10;}
		.st17{clip-path:url(#SVGID_32_);fill:none;stroke:#665D57;stroke-width:7;stroke-miterlimit:10;}
		.st18{clip-path:url(#SVGID_34_);fill:none;stroke:#665D57;stroke-width:7;stroke-miterlimit:10;}
		.st19{clip-path:url(#SVGID_36_);fill:none;stroke:#665D57;stroke-width:7;stroke-miterlimit:10;}
		.st20{clip-path:url(#SVGID_38_);fill:none;stroke:#665D57;stroke-width:7;stroke-miterlimit:10;}
		.st21{clip-path:url(#SVGID_40_);fill:none;stroke:#665D57;stroke-width:7;stroke-miterlimit:10;}
		.st22{clip-path:url(#SVGID_42_);fill:none;stroke:#665D57;stroke-width:7;stroke-miterlimit:10;}
		.st23{clip-path:url(#SVGID_44_);fill:none;stroke:#665D57;stroke-width:7;stroke-miterlimit:10;}
		.st24{clip-path:url(#SVGID_46_);fill:none;stroke:#665D57;stroke-width:7;stroke-miterlimit:10;}
		.st25{clip-path:url(#SVGID_48_);fill:none;stroke:#665D57;stroke-width:7;stroke-miterlimit:10;}
		.st26{clip-path:url(#SVGID_50_);fill:none;stroke:#665D57;stroke-width:7;stroke-miterlimit:10;}
		.st27{clip-path:url(#SVGID_52_);fill:none;stroke:#665D57;stroke-width:7;stroke-miterlimit:10;}
		.st28{clip-path:url(#SVGID_54_);fill:none;stroke:#665D57;stroke-width:7;stroke-miterlimit:10;}
		.st29{clip-path:url(#SVGID_56_);fill:none;stroke:#665D57;stroke-width:7;stroke-miterlimit:10;}
		.st30{clip-path:url(#SVGID_58_);fill:none;stroke:#665D57;stroke-width:7;stroke-miterlimit:10;}
		.st31{clip-path:url(#SVGID_60_);fill:none;stroke:#665D57;stroke-width:7;stroke-miterlimit:10;}
		.st32{clip-path:url(#SVGID_62_);fill:none;stroke:#665D57;stroke-width:7;stroke-miterlimit:10;}
		.st33{clip-path:url(#SVGID_64_);fill:none;stroke:#665D57;stroke-width:7;stroke-miterlimit:10;}
		.st34{clip-path:url(#SVGID_66_);fill:none;stroke:#665D57;stroke-width:7;stroke-miterlimit:10;}
		.st35{clip-path:url(#SVGID_68_);fill:none;stroke:#665D57;stroke-width:7;stroke-miterlimit:10;}
		.st36{clip-path:url(#SVGID_70_);fill:none;stroke:#665D57;stroke-width:7;stroke-miterlimit:10;}
		.st37{clip-path:url(#SVGID_72_);fill:none;stroke:#665D57;stroke-width:7;stroke-miterlimit:10;}
		.st38{clip-path:url(#SVGID_74_);fill:none;stroke:#665D57;stroke-width:7;stroke-miterlimit:10;}
		.st39{clip-path:url(#SVGID_76_);fill:none;stroke:#665D57;stroke-width:7;stroke-miterlimit:10;}
		.st40{clip-path:url(#SVGID_78_);fill:none;stroke:#665D57;stroke-width:7;stroke-miterlimit:10;}
		.st41{clip-path:url(#SVGID_80_);fill:none;stroke:#665D57;stroke-width:7;stroke-miterlimit:10;}
		.st42{clip-path:url(#SVGID_82_);fill:none;stroke:#665D57;stroke-width:7;stroke-miterlimit:10;}
		.st43{clip-path:url(#SVGID_84_);fill:none;stroke:#665D57;stroke-width:7;stroke-miterlimit:10;}

         @keyframes ani1{
            from{
                /* 애니메이션 시작점 */
                stroke-dashoffset: 1000;
            }
            to{
                /* 애니메이션 끝점 */
                stroke-dashoffset: 0;
            }
        }
       .st16, .st17, .st18, .st19, .st20, .st21, .st22, .st23, .st24, .st25, .st26, .st27, .st28, .st29, .st30, .st31, .st32, .st33, .st34, .st35, .st36, .st37, .st38, .st39, .st40, .st41, .st42, .st43{
            stroke-dasharray: 1000;
            stroke-dashoffset: 1000;
            animation: ani1 2s linear forwards;
        }
		/* branch */
        .st16{animation-delay: 0s;}
        .st17{animation-delay: 1.0s;}
		.st18{animation-delay: 1.5s;}
		.st19{animation-delay: 2.0s;}
        .st21{animation-delay: 2.5s;}
        .st25{animation-delay: 2.9s;}
        .st24{animation-delay: 3.3s;}
        .st22{animation-delay: 3.7s;}
        .st23{animation-delay: 4.1s;}
		.st26{animation-delay: 4.5s;}
		.st20{animation-delay: 4.9s;}
		.st27{animation-delay: 5.3s;}
		.st28{animation-delay: 5.7s;}
		.st29{animation-delay: 6.1s;}
		/* leaves */
        .st30{animation-delay: 6.5s;}
        .st31{animation-delay: 6.9s;}
        .st32{animation-delay: 7.3s;}
		.st33{animation-delay: 7.7s;}
		.st34{animation-delay: 8.1s;}
		.st35{animation-delay: 8.5s;}
		.st36{animation-delay: 8.9s;}
		.st37{animation-delay: 9.2s;}
		.st38{animation-delay: 9.5s;}
		.st39{animation-delay: 9.8s;}
		.st40{animation-delay: 10.1s;}
		.st41{animation-delay: 10.4s;}
		.st42{animation-delay: 10.7s;}
		.st43{animation-delay: 11.0s;}


        @keyframes ani2{
            0% {opacity: 0;}
            85% {opacity: 0;}
            100% {opacity:1;}
        }
        #Layer_3{
            animation: ani2 14s linear forwards;
        }


        @keyframes ani3{
            0% {transform: rotate(0deg); transform-origin: bottom center;}
            50% {transform: rotate(0.7deg); transform-origin: bottom center;}
            100% {transform: rotate(0deg); transform-origin: bottom center;}
        }
        #Layer_2{
            animation: ani3 3s infinite;
            animation-delay: 14s;
        }
	</style>
	<g id="Layer_3">
		<g>
			<defs>
				<polygon id="SVGID_1_" points="330.56,108.22 333.18,98.29 336.41,81.25 329.18,66.54 326.66,51.35 321.86,45 324.32,34.62 
					315.22,28.45 308.61,14.11 305.92,14.98 300.9,26 294.78,33.71 293.33,41.95 288.9,47.31 285.59,56.36 290.24,68.49 
					289.63,80.24 295.43,89.4 307.39,99.7 324.9,108.95 326.52,112.08 328.41,112.94 			"/>
			</defs>
			<clipPath id="SVGID_2_">
				<use xlink:href="#SVGID_1_"  style="overflow:visible;"/>
			</clipPath>
			<g class="st0">
				<g>
					<path class="st1" d="M326.58,48.8c-2.87-13.09-3.92-26.12-10.35-38.19c-5.15-9.67-17.81-13.08-27.47-9
						c-10.9,4.6-14.32,14.89-12.74,25.95c4.07,28.49,8.14,56.97,12.21,85.46c0.58,4.09,1.17,8.17,1.75,12.26
						c1.29,9.06,12.5,16.54,21.21,16.15c9.35-0.42,19.08-6.47,21.21-16.15c3.12-14.14,2.22-27.32-0.44-41.44
						c-0.99-5.28-2.75-10.84-3.02-16.21c0.16,3.2,0.22,1.55,0.01-0.69c-0.15-1.59-0.28-3.18-0.44-4.77
						C328.03,57.69,327.48,53.21,326.58,48.8c-2.31-11.29-16.28-18.85-27.06-15.37c-11.97,3.87-17.84,14.96-15.37,27.06
						c0.47,2.27,0.4,1.81,0.15-0.22c0.19,1.58,0.33,3.17,0.48,4.76c0.3,3.2,0.66,6.38,1.09,9.57c0.8,5.92,1.87,11.76,3.03,17.62
						c0.43,2.2,0.86,4.4,1.24,6.6c0.1,0.55,0.19,1.09,0.27,1.64c0.26,1.67,0.19,1.09-0.22-1.74c-0.24,0.22,0.28,2.9,0.31,3.31
						c0.16,2.24,0.22,4.49,0.14,6.74c-0.01,0.17-0.54,5.54-0.08,2.31c0.47-3.31-0.57,2.43-0.58,2.49c14.14,0,28.29,0,42.43,0
						c-4.07-28.49-8.14-56.97-12.21-85.46c-0.58-4.09-1.17-8.17-1.75-12.26c-13.4,5.65-26.81,11.3-40.21,16.95
						c0.31,0.54,0.59,1.09,0.85,1.66c0.7,1.5,0.38,0.76-0.96-2.22c0.1,1.17,0.95,2.9,1.27,4.04c0.73,2.66,1.3,5.36,1.81,8.06
						c1.03,5.37,1.78,10.79,2.95,16.13c2.46,11.26,16.17,18.89,27.06,15.37C323.05,72.03,329.22,60.86,326.58,48.8z"/>
				</g>
			</g>
		</g>
		<g>
			<defs>
				<polygon id="SVGID_3_" points="442.44,101.8 448.33,87.04 449.8,65.39 452.11,59.06 457.4,55.14 467.31,52.75 478.59,52.75 
					491.37,52.75 501.84,50.55 510.21,45.41 516.18,43.44 520.37,41.95 514.73,48.71 514.73,55.14 512.35,69.12 509.4,76.23 
					504.55,80.67 495.28,85.09 488.95,85.82 486.43,92.46 478.59,97.12 465.1,100.54 451.36,105.97 439.86,110.07 439.06,108.27 			
					"/>
			</defs>
			<clipPath id="SVGID_4_">
				<use xlink:href="#SVGID_3_"  style="overflow:visible;"/>
			</clipPath>
			<g class="st2">
				<g>
					<path class="st1" d="M489.63,13c-7.48,3.28-14.96,6.57-22.44,9.85c-2.79,1.22-5.64,2.35-8.36,3.73
						c-9.83,4.96-17.48,12.98-23.97,21.67c-5.41,7.25-10.06,16.15-12.89,24.74c-5.11,15.49,2.56,33.64,18.94,38.18
						c15.16,4.2,26.63-5.43,35.12-16.57c0.43-0.57,0.87-1.14,1.29-1.72c1.7-2.29-0.83,1.17-0.9,1.16c0.45,0.06,3.52-4.01,3.98-4.47
						c0.67-0.68,1.35-1.34,2.05-1.98c0.35-0.31,0.7-0.62,1.05-0.94c1.44-1.19,1.43-1.21-0.05-0.05c-0.37,0.28-0.74,0.57-1.12,0.85
						c0.57-0.43,1.16-0.84,1.75-1.24c1.01-0.69,2.04-1.36,3.09-2c8.46-5.16,17.48-9.34,23.92-17.21
						c8.23-10.07,12.41-21.9,11.66-35.01c-0.65-11.47-9.65-22.55-22-22c-11.36,0.51-22.7,9.69-22,22c0.1,1.72-0.05,3.46,0.04,5.17
						c0.12,2.29,0.24-2.33,0.39-2.49c-0.28,0.3-0.27,1.46-0.41,1.87c-0.19,0.57-0.37,1.21-0.52,1.79c-0.85,3.4,0.4-1.7,0.82-1.94
						c-0.33,0.19-3.45,5.2-0.83,1.7c2.35-3.13-0.85,0.57-1.49,1.26c-2.47,2.68,3.74-2.39,0.59-0.35c-2.94,1.9-5.93,3.57-9,5.26
						c-6.88,3.79-13.53,8.56-19.04,14.18c-3.27,3.34-6.08,7.1-8.9,10.81c-0.5,0.66-2.99,4-0.66,0.91c2.43-3.23-1.29,1.01-1.86,1.78
						c-1.23,1.67,2.12-1.68,2.16-1.71c5.61-3.41,16.19-2.57,19.82,2.63c1.97,2.83,4.25,9.45,4.09,12.77
						c-0.15,3.27-0.37,1.24,0.03,0.35c1.6-3.6-2.29,4.36,0.09-0.43c0.65-1.31,1.28-2.63,1.94-3.94c1.42-2.83,2.99-5.59,4.75-8.22
						c3.01-4.48-2.08,2.1,0.47-0.76c1.29-1.45,2.57-2.88,3.98-4.21c0.53-0.5,1.12-0.94,1.63-1.46c1.6-1.63-1.38,1.12-1.57,1.15
						c1.27-0.24,3.32-2.21,4.43-2.83c1.01-0.57,2.01-1.05,3.06-1.53c2.88-1.32,5.82-2.55,8.72-3.83c6.79-2.98,13.59-5.96,20.38-8.95
						c10.58-4.64,13.82-20.91,7.89-30.1C512.67,9.94,500.95,8.04,489.63,13z"/>
				</g>
			</g>
		</g>
		<g>
			<defs>
				<polygon id="SVGID_5_" points="576.5,79.11 571.46,90.18 574.66,101.61 575.95,109.51 569.54,117.7 561.62,123.84 557.03,135.13 
					545.55,140.28 527.37,142.28 519.93,147.16 505.12,145.89 501.84,137.44 505.42,124.96 517.22,106.48 532.7,97.39 547.11,96.19 
					552.31,94.72 563.22,86.47 572.46,79.11 			"/>
			</defs>
			<clipPath id="SVGID_6_">
				<use xlink:href="#SVGID_5_"  style="overflow:visible;"/>
			</clipPath>
			<g class="st3">
				<g>
					<path class="st1" d="M509.95,152.77c12.41,2.87,23.55-0.84,32.55-9.65c4.63-4.53,8.92-9.51,13.44-14.16
						c12.42-12.77,21.97-27.77,21.16-46.27c-0.39-8.89-5.22-16.6-13.52-20.11c-8.55-3.61-17.14-1.34-24.03,4.55
						c-9.63,8.22-19.25,16.45-28.88,24.67c-1.84,1.57-3.71,3.12-5.52,4.72c-1.36,1.2-3.77,3.22,2.81-2.13
						c-2.91,2.36-5.98,4.4-8.56,7.13c-6.16,6.53-11.51,15.21-11.17,24.54C488.71,139.76,497.7,148.42,509.95,152.77
						c10.86,3.86,24.56-4.36,27.06-15.37c2.81-12.34-3.74-22.93-15.37-27.06c6.17,2.2,11.11,8.47,10.57,15.72
						c-0.2,1.36-0.39,2.72-0.59,4.08c0.48-1.49,0.35-1.22-0.4,0.8c-1.28,3.75,0.14,0.78,0.51-0.13c-1.57,3.81-2.5,3.04-0.42,0.99
						c0.66-0.65,1.41-1.23,2.07-1.88c1.34-1.12,0.53-0.49-2.44,1.87c1.48-1.15,2.97-2.29,4.45-3.44c0.21-0.17,0.41-0.36,0.62-0.53
						c3.73-3.1,7.38-6.3,11.07-9.45c7.86-6.71,15.72-13.42,23.57-20.14c-12.52-5.19-25.04-10.37-37.56-15.56
						c0.03,0.73-0.32,4.02-0.02,4.63c-0.39-0.78,1.01-4.68,0.14-1.58c-0.29,1.03-1.13,2.91-1.2,3.96c0.11-1.67,1.98-4.16,0.2-0.97
						c-0.55,0.99-1.2,1.92-1.77,2.89c-2.28,3.91,2.29-2.57,0.56-0.6c-1.71,1.95-3.39,3.91-5.19,5.79
						c-3.33,3.47-6.83,6.79-10.06,10.35c-1.48,1.64-3.72,3.44-4.86,5.29c-0.98,1.58,4.16-2.37,0.97-0.76
						c3.07-1.55,6.34-2.15,9.76-1.36c-11.19-2.58-24.35,3.45-27.06,15.37C492.03,136.93,497.95,150,509.95,152.77z"/>
				</g>
			</g>
		</g>
		<g>
			<defs>
				<path id="SVGID_7_" d="M483.78,206.49l10.69-14.45l14.72-3.92l11.18-0.92l12.54-6.08l19.07-5.74l6.06-1.53v2.2l-8.29,21.7
					l-4.14,3.77l-10.42-0.58l-6.17,6.22l-8.11,13.9l-14.17,3.61l-20.51-11.45c0,0-4.1-4.44-3.67-4.85
					C482.98,207.96,483.78,206.49,483.78,206.49z"/>
			</defs>
			<clipPath id="SVGID_8_">
				<use xlink:href="#SVGID_7_"  style="overflow:visible;"/>
			</clipPath>
			<g class="st4">
				<g>
					<path class="st1" d="M552.19,145.97c-22.78,8.08-45.55,16.16-68.33,24.24c-14.14,5.02-19.58,18.88-13.15,32.32
						c10,20.89,37.39,20.92,56.5,15.86c10.09-2.67,18.83-7.28,26.79-14.03c7.45-6.31,12.81-14.66,19.59-21.62
						c8.04-8.25,8.84-23,0-31.11c-8.69-7.97-22.54-8.81-31.11,0c-5.59,5.74-10.2,12.34-15.8,18.07c-0.72,0.74-3.32,4.02-4.35,4.03
						c2.54-1.91,2.84-2.19,0.91-0.84c-0.82,0.53-1.66,1.02-2.53,1.48c-5.41,2.82,4.26-1.33,0.94-0.34c-1.06,0.32-2.09,0.74-3.14,1.07
						c-2.57,0.81-5.19,1.47-7.84,1.97c-5.84,1.12,4.1-0.21,0.2,0.04c-1.51,0.1-3,0.23-4.52,0.23c-2.65,0-5.81-1.54,0.48,0.39
						c-0.64-0.2-3.32-1.15-3.88-0.98c3.74,1.7,4.64,2.05,2.69,1.03c-1.84-1.19-1.08-0.58,2.26,1.83c-2.36-2.2,3.03,5.34,0.81,0.71
						c-4.38,10.77-8.77,21.55-13.15,32.32c22.78-8.08,45.55-16.16,68.33-24.24c10.82-3.84,19.21-15.19,15.37-27.06
						C575.8,150.66,563.8,141.85,552.19,145.97z"/>
				</g>
			</g>
		</g>
		<g>
			<defs>
				<polygon id="SVGID_9_" points="594.47,255.47 590.65,232.08 594.01,220.33 619.76,206.73 638.24,202.08 650.98,198.16 
					660.38,192.51 665.18,189.01 665.21,193.2 663.25,206.37 658.16,219.21 651.35,231.96 640.57,246.9 620.28,253.06 602.61,257.92 
					594.85,257.87 			"/>
			</defs>
			<clipPath id="SVGID_10_">
				<use xlink:href="#SVGID_9_"  style="overflow:visible;"/>
			</clipPath>
			<g class="st5">
				<g>
					<path class="st1" d="M643.92,168.76c-23.51,14.94-47.02,29.88-70.53,44.82c-6.61,4.2-10.9,11.02-10.9,19
						c0,8.32,4.43,14.35,10.9,19c19.95,14.33,43.4,3.53,60.98-8.78c8.05-5.64,15.73-11.68,22.05-19.25
						c6.49-7.79,12.1-16.18,17.61-24.68c6.27-9.68,2.28-24.73-7.89-30.1c-10.95-5.79-23.41-2.43-30.1,7.89
						c-2.04,3.15-4.07,6.31-6.17,9.42c-0.99,1.47-2,2.92-3.03,4.36c-3.3,4.58,2.24-2.49-0.59,0.86c-2.24,2.65-4.49,5.26-6.99,7.68
						c-1.11,1.07-2.25,2.11-3.41,3.11c-0.81,0.69-1.63,1.37-2.46,2.02c2.07-1.6,2.45-1.92,1.14-0.96
						c-5.61,3.64-10.94,7.46-16.8,10.72c-4.04,2.25,3.89-0.92-0.2,0.03c-1.85,0.43-7.68,0.91-1.04,0.54
						c-4.45,0.25,4.73,1.45,0.41,0.23c-2.22-0.72-1.8-0.51,1.28,0.62c-0.9-0.5-1.76-1.07-2.58-1.7c0,12.66,0,25.33,0,37.99
						c23.51-14.94,47.02-29.88,70.53-44.82c9.7-6.17,14.5-19.86,7.89-30.1C667.76,166.94,654.31,162.16,643.92,168.76z"/>
				</g>
			</g>
		</g>
		<g>
			<defs>
				<path id="SVGID_11_" d="M505.76,341.86l7.72-6.07l12.71,0.67l23.65,15.93l8.69,12.06l8.82,49.84l-3.86-1.75l-11.08-6.36
					l0.24-7.69l-20.56-6.81l-21.46-7.52l-4.4-6.74l-3.29-6.61l-7.08-8.78l-2-8.86C493.88,353.18,502.57,340.82,505.76,341.86z"/>
			</defs>
			<clipPath id="SVGID_12_">
				<use xlink:href="#SVGID_11_"  style="overflow:visible;"/>
			</clipPath>
			<g class="st6">
				<g>
					<path class="st1" d="M531.68,314.23c-2.94-1.47-5.88-2.94-8.82-4.41c-8.49-4.25-19.81-4.03-26.66,3.44
						c-6.64,7.23-8.52,17.96-3.44,26.66c0.41,0.63,0.77,1.29,1.08,1.97c0.71,1.47,0.47,0.89-0.72-1.75c-0.02,1.01,1.29,3.37,1.67,4.3
						c2.28,5.56,4.34,9.63,8.27,14.27c3.97,4.68,8.45,8.94,12.49,13.59c4.37,5.02,9.46,9.34,14.12,14.07
						c2.23,2.26,4.31,4.64,6.34,7.08c1.04,1.25,2.44,2.65,3.28,4.04c-2.66-4.4,0.24,0.4,0.75,1.11c1.85,2.59,3.59,5.26,5.18,8.02
						c0.56,0.97,3.25,6.67,1.24,1.84c-1.69-4.06-0.53-1.36-0.25-0.38c1.21,4.19,2.21,8.41,3.26,12.65
						c2.69,10.85,6.91,24.62,17.94,29.78c13.76,6.44,26.93,0.93,32.32-13.15c4.74-12.4,3.35-26.62,1.31-39.39
						c-1.98-12.39-5.96-24.42-11.41-35.71c-5.45-11.31-14.48-21.24-24.23-29.03c-11.65-9.3-24.37-17.46-38.99-21.2
						c-11.13-2.85-24.39,3.64-27.06,15.37c-2.61,11.45,3.44,24.01,15.37,27.06c1.28,0.33,2.54,0.67,3.79,1.09
						c0.43,0.15,0.86,0.3,1.29,0.44c1.74,0.67,1.74,0.64-0.01-0.09c-1.76-0.77-1.75-0.76,0.01,0.02c0.44,0.21,0.89,0.42,1.33,0.63
						c1.35,0.65,2.68,1.35,4,2.07c2.26,1.25,4.46,2.6,6.61,4.04c1.09,0.73,2.14,1.54,3.23,2.25c2.25,1.47-3.21-2.7-0.06-0.07
						c4.35,3.63,8.33,7.5,12.1,11.73c2.67,3-1.81-2.71-0.36-0.53c0.63,0.94,1.31,1.85,1.92,2.81c1.15,1.81,2.16,3.69,3.09,5.62
						c0.41,0.86,0.74,1.88,1.23,2.68c-0.87-1.41-1.78-4.55-0.56-1.18c0.84,2.33,1.68,4.64,2.41,7.01c1.48,4.78,2.67,9.64,3.53,14.57
						c0.6,3.41,0.09,1.19-0.03-0.9c0.08,1.39,0.32,2.8,0.44,4.19c0.18,2.24,0.27,4.5,0.24,6.75c-0.02,1.07-0.09,2.14-0.13,3.21
						c-0.14,3.86-0.31-0.3,0.3-1.59c-0.89,1.89-1,4.46-1.76,6.46c10.77-4.38,21.55-8.77,32.32-13.15c-2.39-1.12,4.42,4.1,2.41,1.92
						c0.3,0.33,3.93,5.03,1.89,2.12c-2.39-3.4,1.31,3.9,0.68,1.74c-0.25-0.86-0.59-1.69-0.86-2.54c-1.28-4.08-2.19-8.26-3.2-12.41
						c-2.69-11.04-7.76-20.66-14.55-29.75c-4.56-6.1-9.28-12.23-14.58-17.7c-4.43-4.57-9.3-8.71-13.59-13.41
						c-3.85-4.22-7.56-8.44-11.55-12.55c-2.08-2.15-1.49-1.74,0.08,0.29c-2.77-3.57,1.24,3.67-0.25-0.32
						c-1.55-4.14-3.11-8.35-5.34-12.17c-10.03,10.03-20.07,20.07-30.1,30.1c2.94,1.47,5.88,2.94,8.82,4.41
						c10.28,5.14,24.3,3.08,30.1-7.89C544.84,334.36,542.66,319.72,531.68,314.23z"/>
				</g>
			</g>
		</g>
		<g>
			<defs>
				<path id="SVGID_13_" d="M162.44,390.12c0,0,4.06-2.79,3.09-4.14c-0.97-1.36-6.43-10.97-6.43-10.97l-16.36-13.31l-20.98-4.22
					L103,359.18l-20.46,6.38l-5.35,2.91l-15.22,3.39l-0.45,1.5l5.76,3.38c0,0,7.17,6.64,6.73,8.13s2.52,7.61,2.52,7.61l5.81,1.68
					l7.89-0.13l4.35,4.54l3.92,4.48l27.18,1.31l9.8-6.49l9.92-5.51L162.44,390.12z"/>
			</defs>
			<clipPath id="SVGID_14_">
				<use xlink:href="#SVGID_13_"  style="overflow:visible;"/>
			</clipPath>
			<g class="st7">
				<g>
					<path class="st1" d="M49.27,384.05c8.11-0.04,16.2-0.61,24.31-0.84c4.16-0.12,8.33-0.15,12.49,0.03c1.8,0.08,3.59,0.2,5.38,0.37
						c0.62,0.06,3.85,0.54,1.33,0.12c-2.7-0.45,1.48,0.31,2.01,0.42c1.94,0.4,3.87,0.88,5.77,1.47c0.94,0.29,1.86,0.66,2.79,0.96
						c-0.66-0.21-3.36-1.71-0.36-0.12c1.53,0.81,3.05,1.61,4.5,2.56c0.76,0.49,1.46,1.11,2.23,1.56c1.75,1-3.33-2.74-0.8-0.62
						c2.68,2.23,5.32,4.48,7.79,6.95c1.15,1.15,2.27,2.34,3.33,3.57c0.44,0.51,2.06,2.92,0.71,0.8c-1.47-2.29,0.53,0.93,0.82,1.4
						c-0.11-0.18,1.28,2.14,1.21,2.2c-0.07,0.05-1.62-4.38-0.58-1.13c0.41,1.3,0.22,3.19-0.14-1.71c0.18,2.4-1.35,0.08,0.45-2.42
						c-0.32,0.45-1.47,4.38,0.03,0.59c1.18-2.98,0.5-1.29,0.08-0.53c-1.41,2.56,0.72-1.12,1.31-1.49c-0.76,0.48-1.66,1.78-2.31,2.43
						c-0.19,0.19-1.34,1.05-1.33,1.16c-0.01-0.31,4.01-2.67,1.54-1.23c-2.31,1.35-4.48,2.82-6.9,4c-0.63,0.31-1.28,0.59-1.92,0.9
						c-1.69,0.81-1.41-0.32,1.43-0.6c-1.3,0.13-2.91,1.11-4.17,1.54c-2.87,0.98-5.78,1.83-8.72,2.55c-2.92,0.73-5.88,1.34-8.85,1.83
						c-0.54,0.09-1.1,0.15-1.64,0.26c-2.39,0.51,4.09-0.45,1.69-0.22c-1.56,0.15-3.11,0.35-4.67,0.46c-2.52,0.19-5.06,0.28-7.58,0.21
						c-0.98-0.03-1.95-0.12-2.93-0.16c-3.59-0.16,4.77,1.25,0.92,0.09c-0.37-0.11-3.44-1.03-3.45-1.02c0.16-0.21,4.19,2.15,1.14,0.45
						c-0.53-0.3-1.09-0.56-1.62-0.86c-1.48-0.82-2.8-1.83-4.23-2.7c-2.07-1.26,2.31,2.33,0.69,0.48c-0.71-0.81-1.66-1.47-2.44-2.23
						c-1.29-1.25-2.47-2.59-3.65-3.94c-1.93-2.19,0.45,0.5,0.39,0.53c-0.05,0.02-1.08-1.56-1.16-1.68c-1.01-1.51-1.94-3.07-2.79-4.68
						c-0.42-0.8-0.79-1.63-1.21-2.43c-1.03-1.96,1.01,3.36,0.09,0.06c-0.47-1.69-0.94-3.41-1.44-5.09c-0.82-2.73-0.24,0.82,0.03,1.07
						c-0.2-0.19-0.15-1.64-0.16-1.92c-0.01-0.85-0.02-1.71-0.05-2.55c-0.04-1.23-0.78-2.78-0.08-0.7c0.64,1.89-0.24,0.85,0.21-0.65
						c0.14-0.45,0.55-2.93,0.9-3.04c0.7-0.23-3.15,3.8-0.29,0.89c2.09-2.12-2.24,1.38-1.09,1.16c0.15-0.03,1.51-1.63,1.5-1.48
						c-0.03,0.36-3.2,1.91-1.57,1.3c0.63-0.23,1.38-0.7,1.94-1.08c1.86-1.29-3.52,0.94-1.23,0.55c1.72-0.29,3.54-0.95,5.25-1.34
						c2.91-0.66-1.24,0.45-1.22,0.15c0-0.06,2.7-0.19,2.51-0.18c1.46-0.07,2.92-0.09,4.38-0.05c1.62,0.04,3.23,0.26,4.84,0.3
						c2.48,0.07-3.83-0.82-1.51-0.21c0.85,0.22,1.77,0.3,2.63,0.49c1.67,0.36,3.29,0.87,4.93,1.36c0.26,0.08,2.76,0.94,0.74,0.19
						c-2.17-0.8,0.91,0.45,1.41,0.7c1.92,0.97,3.62,2.21,5.48,3.25c2.32,1.31-1.82-1.89,0.03,0.01c0.89,0.92,1.92,1.84,2.86,2.7
						c0.52,0.48,2.32,2.68,0.11-0.17c0.64,0.82,1.22,1.75,1.76,2.63c0.39,0.64,0.76,1.28,1.12,1.94c0.11,0.21,0.23,0.42,0.34,0.63
						c0.75,1.57,0.78,1.61,0.1,0.14c0.28-0.31-0.64-1.8-0.05,0.51c0.59,2.35-0.39-4.3-0.34-2.05c-0.06-2.92,1.39-5.57,3.26-7.55
						c-0.95,1-2.22,1.54,1.84-1.27c-0.74,0.51-3.13,1.31-0.23,0.37c3.29-1.07-1.87,0.47-2.77,0.67c-0.32,0.07-2.26,0.37-2.3,0.44
						c0.15-0.36,4.28-0.39,1.21-0.18c-2.22,0.16-4.43,0.36-6.66,0.36c-0.87,0-1.73-0.08-2.59-0.08c-3.09,0,1.08-0.21,1.18,0.25
						c0.02,0.07-5.25-1.48-5.54-1.4c-0.01,0,3.63,1.71,2.12,0.86c-2.67-1.51,0.48,0.5,1.19,1.2c-1.9-1.88,1.49,2.09,1.46,2.05
						c2.21,3.72,2.34,10.32,0.05,14.04c0.16-0.26-2.78,3.57-1.5,1.91c2.27-2.93-0.4,0.34-0.44,0.22c-0.13-0.49,8.4-4.27,4.78-2.64
						c-2.72,1.22-0.37,0.17,0.36-0.07c0.93-0.31,1.85-0.64,2.79-0.93c1.79-0.55,3.6-0.95,5.43-1.38c0.71-0.16,3.41-0.91,0.69-0.19
						c-2.85,0.75,0.58-0.01,1.35-0.05c0.84-0.04,1.68-0.06,2.52-0.05c0.84,0.02,4.12-0.45,1.22-0.03c-2.36,0.35-0.7-0.09,0.48,0.24
						c3.86,1.06-0.68-0.03-0.62-0.43c-0.02,0.18,2.23,1.01,1.96,1.18c-0.7,0.45-3.25-3.14-0.41,0.35
						c2.72-10.31,5.44-20.61,8.16-30.92c-0.5,0.14-3.3,0.46-3.51,0.79c3.32-0.41,3.98-0.51,1.97-0.3c-0.69,0.06-1.37,0.1-2.06,0.12
						c-1.24,0.04-2.48-0.05-3.72-0.06c-4.52-0.01,3.56,0.94,0.12,0.06c-0.99-0.25-3.11-1.21-4.06-1.09c2.82,1.27,3.36,1.5,1.62,0.67
						c-0.58-0.3-1.15-0.63-1.7-0.99c0.13-0.32,3.58,3.8,0.87,0.43c1.85,2.57,2.28,3.06,1.29,1.45c1.13,3,1.41,3.57,0.83,1.71
						c0.3,3.24,0.39,3.83,0.27,1.77c0.1-2.14-0.02-1.68-0.36,1.4c0.93-3.47-2.28,3.48-0.51,0.79c-2.12,2.5-2.54,3.08-1.27,1.75
						c-2.72,1.93-3.28,2.42-1.69,1.46c-3.15,1.21-3.82,1.52-2.01,0.94c1.89-0.41,1.14-0.35-2.24,0.19c0.65,0.23,2.11-0.04,2.87-0.08
						c4.87-0.23-2.94-0.81,0.07-0.07c2.45,0.6,4.8,1.44,7.23,2.08c1.4,0.37-4.45-2.18-0.68-0.25c1.63,0.84,3.28,1.64,4.9,2.5
						c3.02,1.6,5.99,3.3,8.82,5.22c0.82,0.55,1.62,1.13,2.41,1.72c-1.81-1.39-1.92-1.43-0.35-0.11c0.7,0.74,4.59,5.38,1.9,1.51
						c0.53,0.76,2.3,2.71,2.16,3.55c-0.9-2.32-0.99-2.53-0.28-0.62c0.29,0.84,0.53,1.69,0.74,2.56c0.41,2.06,0.41,1.71,0-1.07
						c0.09,0.85,0.14,1.7,0.15,2.56c0.01,0.64,0,1.27-0.05,1.9c-0.1,1.44,0.01,0.85,0.33-1.79c0.37,0.2-1.1,4.39-1.23,4.85
						c-0.71,1.89-0.57,1.56,0.42-0.97c-0.37,0.75-0.77,1.48-1.2,2.19c-0.43,0.71-0.89,1.41-1.38,2.08c0.44-0.59,0.89-1.18,1.33-1.78
						c0.09,0.41-3.17,3.44-3.62,3.54c2.07-1.56,2.28-1.78,0.62-0.64c-0.74,0.46-1.49,0.89-2.27,1.29c-1.83,0.87-1.58,0.78,0.76-0.28
						c-0.85,0.31-1.72,0.58-2.6,0.81c-9.3,2.66-16.02,13.18-12.92,22.76c3.06,9.46,12.79,15.78,22.76,12.92
						c19-5.44,32.87-21.04,35.51-40.64c2.88-21.44-9.42-38.98-27.01-49.9c-12.72-7.9-27.5-14.45-42.77-12.4
						C72.4,347.24,61.21,372,72.62,390.4c10.17,16.4,33.1,19.91,50.49,15.11c6.22-1.72,11.21-6.7,12.92-12.92
						c1.89-6.87-0.47-12.74-4.76-18c-15.29-18.76-47.35-13.31-65.36-1.79c-6.23,3.99-11.14,9.17-13.54,16.28
						c-2.6,7.69-0.08,16.73,5.43,22.51c7.82,8.2,19.85,11.09,30.85,11.11c10.12,0.02,21.54-1.47,30.12-7.23
						c13.04-8.75,14.92-23.91,8.85-37.51c-10.13-22.7-35.72-34.73-59.65-34.55c-12.06,0.09-24.14,2.95-33.52,10.84
						c-9.13,7.67-13.23,20.94-12.8,32.58c0.82,22.45,15.53,45.97,35.86,55.96c16.26,7.99,34.47,6.25,51.66,2.34
						c16.43-3.73,36.13-11.17,45.19-26.45c14.48-24.41-8.7-48.89-28.21-61.61c-22.86-14.91-51.24-10.14-76.89-10.01
						c-9.68,0.05-18.95,8.48-18.5,18.5C31.21,375.54,38.89,384.1,49.27,384.05L49.27,384.05z"/>
				</g>
			</g>
		</g>
		<g>
			<defs>
				<polygon id="SVGID_15_" points="201.47,358.27 217.88,323.67 215.76,311.25 204.41,295.51 205.18,280.51 204.41,275.52 
					199.37,268.33 189.84,260.35 187.91,256.33 181.27,264.78 180.69,283.51 173.8,300.04 163.63,319.58 166.06,331.78 
					190.76,350.61 198.4,359.58 201.22,360.65 			"/>
			</defs>
			<clipPath id="SVGID_16_">
				<use xlink:href="#SVGID_15_"  style="overflow:visible;"/>
			</clipPath>
			<g class="st8">
				<g>
					<path class="st1" d="M206.02,306.15c-0.98-3.34-1.86-6.71-2.64-10.11c-0.3-1.33-1.98-10.61-1.18-4.74
						c0.72,5.28,0.08-0.58,0-1.82c-0.12-1.82-0.23-3.64-0.39-5.45c-1.12-12.41-3.58-25.96-15.48-32.76
						c-14.5-8.28-31.64-0.01-38.91,13.82c-5.07,9.63-7.13,20.03-8.42,30.71c-1.36,11.31,1.05,22.57,6.65,32.5
						c4,7.09,9.18,13.59,13.39,20.57c2.78,4.61,5.8,9.15,8.83,13.59c10.64,15.62,33.12,15.99,43.34-0.29
						c5.24-8.35,6.46-19.54,5.75-29.21c-0.46-6.27-1.21-12.55-4.29-18.14c-1.66-3-3.9-5.65-6.03-8.33c-0.68-0.85-1.34-1.94-2.15-2.66
						c2.04,2.74,2.42,3.14,1.12,1.18C204.55,303,204.69,303.37,206.02,306.15c-3.78-10.84-15.23-19.19-27.06-15.37
						c-10.73,3.47-19.42,15.43-15.37,27.06c1.43,4.1,3.02,8.06,5.53,11.6c1.57,2.21,3.37,4.4,5.1,6.54c2.63,3.25-2.34-4.12,0.05,0.25
						c1.26,2.29-1.91-6.39-1.46-3.41c0.08,0.52,0.23,1.1,0.38,1.61c1.09,3.77-0.44-5.22-0.34-2.75c0.03,0.88,0.15,1.76,0.19,2.64
						c0.08,1.72,0.08,3.44-0.01,5.16c-0.04,0.82-0.31,1.99-0.22,2.8c-0.6-5.13,0.93-4.93,0.24-2.34c-0.2,0.74-0.47,1.57-0.61,2.32
						c-0.6,3.08,2.83-5.28,1.11-2.77c2.25-3.3,4.91-5.67,8.63-7.24c3.81-1.93,7.94-2.26,12.4-0.98c4.23,2.06,5.41,2.51,3.54,1.34
						c2.63,2.63,5.26,5.26,7.89,7.89c-4.21-6.47-8.19-13.04-12.26-19.58c-1.84-2.96-3.96-5.73-5.99-8.56
						c-0.97-1.36-1.94-2.72-2.84-4.13c-0.69-1.09-1.49-3.55-2.45-4.34c1.33,3.35,1.59,3.93,0.77,1.73c-0.28-0.83-0.52-1.68-0.73-2.53
						c-0.46-2.34-0.42-1.77,0.12,1.71c-0.09-1.01-0.13-2.02-0.12-3.03c0-1.19,0.16-2.35,0.19-3.52c0.11-4.64-0.72,4.22-0.3,2.02
						c0.5-2.62,0.9-5.25,1.54-7.84c0.36-1.47,0.77-2.93,1.24-4.38c0.23-0.71,0.47-1.41,0.73-2.11c0.83-2.13,0.51-1.37-0.97,2.29
						c0.44-0.62,1.86-2.67,1.95-3.4c-2.63,3.19-3.22,4.02-1.76,2.49c-2.01,2.01-4.39,3.36-7.15,4.06
						c-7.55,1.95-15.96-1.58-19.99-8.25c1.65,2.73-1.72-6.18-0.83-1.99c0.22,1.05,0.46,2.15,0.73,3.18c0.94,3.56-0.67-6.43-0.13-0.8
						c0.24,2.58,0.36,5.17,0.56,7.75c0.68,9.03,2.72,17.91,5.28,26.58c3.25,11.03,15.62,19.07,27.06,15.37
						C201.84,329.6,209.5,317.98,206.02,306.15z"/>
				</g>
			</g>
		</g>
		<g>
			<defs>
				<path id="SVGID_17_" d="M178.57,497c0,0,2.24,5.23,1.32,6.92c-0.92,1.69-3.57,8.07-3.57,8.07l-3.88,4.42l-5.51,7.72l-4.16,5.38
					l-1.35,7.3l-1.35,3.84l-9.72,7.59l-12.46,6.59l-12.11,3.7l-11.56,0.6l-15.01-6.85l-11.51-7.81l-9.43-3.21l0.96-1.79l12.49-4.9
					l9.51-9.55l6.34-5.83c0,0,10.56,0.96,13.84-2.44c3.28-3.4,8.69-8.55,8.69-8.55l8.65-10.63l12.88-6.51l12.61-0.73
					C164.24,490.33,178.2,494.57,178.57,497z"/>
			</defs>
			<clipPath id="SVGID_18_">
				<use xlink:href="#SVGID_17_"  style="overflow:visible;"/>
			</clipPath>
			<g class="st9">
				<g>
					<path class="st1" d="M161.03,481.64c-10.59,4.19-18.07,10.06-24.78,19.17c-1.7,2.3-3.23,4.7-4.74,7.13
						c-0.75,1.21-1.5,2.43-2.28,3.63c-0.54,0.82-3.7,5.37-1.44,2.21c2.13-2.97-0.77,0.51-1.51,1.31c-1.37,1.48-1.9,0.18,1.37-0.99
						c-0.63,0.22-1.38,0.99-1.93,1.37c-3.41,2.39-6.94,4.63-10.52,6.76c-3.35,1.99-6.75,3.89-10.2,5.69
						c-1.54,0.8-3.56,1.46-4.97,2.48c-0.24,0.17,5-1.99,2.77-1.2c-0.96,0.34-1.9,0.77-2.84,1.16c-11.61,4.82-22.34,11.44-24.17,25.13
						c-1.75,13.04,5.9,24.99,17.06,31.37c16.56,9.45,34.8,1.61,48.87-8.52c6.24-4.49,12.31-9.3,18.14-14.31
						c7.29-6.26,12.65-14.3,19.2-21.27c-3.24,1.89-6.47,3.77-9.71,5.66c9.55-2.94,19.1-5.88,28.65-8.82
						c6.65-2.05,11.57-6.36,14.26-12.74c2.92-6.92,1.87-12.91-1.11-19.58C202.73,488.4,181.7,475.19,161.03,481.64
						c-10.97,3.42-19.11,15.49-15.37,27.06c3.57,11.03,15.3,19.03,27.06,15.37c2.91-0.91-0.22-0.17-1.5-0.15
						c4.54-0.08-3.41-1.07-1.05-0.32c2.5,0.81-3.6-2.29-1.44-0.72c0.42,0.2,0.82,0.44,1.2,0.7c1.37,0.88,0.83,0.44-1.62-1.35
						c0.25,0.6,1.58,1.53,2.07,2c2.57,2.45-0.71-1.05-0.7-1.05c0.73-0.12,3.13,5.52,3.47,6.29c4.38-10.77,8.77-21.55,13.15-32.32
						c-7.88,2.42-15.75,4.85-23.63,7.27c-1.46,0.45-2.94,0.87-4.39,1.35c-5.78,1.91-9.86,5.11-13.73,9.6
						c-5.56,6.43-10.57,13.12-17.12,18.62c-2.22,1.87-4.48,3.7-6.74,5.51c-2.78,2.24,1.18-1,1.45-1.12c-0.67,0.3-1.48,1.1-2.1,1.56
						c-1.79,1.3-3.6,2.56-5.46,3.75c-1.45,0.93-2.93,1.82-4.45,2.64c-0.73,0.39-1.48,0.74-2.2,1.13c-1.9,1.03-1.94-0.3,2.03-0.82
						c-1.04,0.13-3.12,0.69-4.07,1.17c0.2-0.11,5.98-0.31,3.05-0.54c1.38,0.2,2.76,0.4,4.14,0.61c-1.59-0.47-1.44-0.36,0.45,0.34
						c4.75,1.75-2.33-1.67,1.62,0.87c0.4,0.3,0.8,0.61,1.2,0.91c-1.25-1.32-1.23-1.22,0.06,0.31c3,6.12,2.55,3.43,0.09,12.71
						c-1.5,5.65-4.22,10.67-1.46,7.63c-3.62,4-3.2,2.17-1.55,1.52c0.34-0.13,1.91-0.77,2.26-1.11c-1.91,1.84-4.07,1.67-1.79,0.77
						c2.46-0.98,4.94-1.98,7.36-3.06c7.83-3.51,15.37-7.89,22.56-12.57c9.73-6.34,17.37-13.11,23.68-22.93
						c1.8-2.8,4.82-6.19,5.96-9.28c-1.28,3.46-2.69,3.13-1.19,1.59c0.85-0.87,1.69-1.74,2.54-2.6c2.02-2.07,0.08,1.46-1.53,1.19
						c0.36-0.22,0.72-0.44,1.07-0.66c2.04-1.05,1.48-0.86-1.69,0.56c10.66-4.22,19.3-14.91,15.37-27.06
						C184.74,486.66,172.48,477.11,161.03,481.64z"/>
				</g>
			</g>
		</g>
		<g>
			<defs>
				<polygon id="SVGID_19_" points="593.08,310.13 602.06,304.11 622.51,296.88 638.58,296.58 650.43,300.9 669.04,315.41 
					682.94,323.49 690.47,325.57 690.47,327.1 679.82,334.82 675.7,336.82 667.82,334.88 660.16,334.02 651.41,339.83 640.82,341.86 
					620.31,336.53 606.96,331.94 600.78,322.82 595.32,315.22 591.16,310.02 			"/>
			</defs>
			<clipPath id="SVGID_20_">
				<use xlink:href="#SVGID_19_"  style="overflow:visible;"/>
			</clipPath>
			<g class="st10">
				<g>
					<path class="st1" d="M598.66,317.61c8.25,6.22,17.96,10.3,28.15,11.99c4.11,0.68,8.25,1.12,12.36,1.78
						c2.06,0.33,4.11,0.7,6.15,1.14c0.62,0.14,1.55,0.44,2.27,0.55c2.87,0.48-3.95-1.97-2.26-0.96c5,3,10.35,5.73,15.56,8.37
						c7.2,3.65,15.59,7.74,23.93,7.45c12.21-0.43,23.38-9.35,23.36-22.28c-0.01-7.37-4.03-13.88-9.55-18.44
						c-11.15-9.2-25.14-14.65-38.49-19.78c-11.28-4.34-24.39-9.82-36.7-9.81c-9.68,0.01-18.95,8.5-18.5,18.5
						c0.45,10.02,8.13,18.51,18.5,18.5c4.43,0-5.21-1.16-0.75-0.17c1.83,0.41,3.65,0.8,5.46,1.29c4.79,1.28,9.52,2.81,14.21,4.45
						c2.66,0.93,5.31,1.91,7.95,2.92c1.17,0.45,2.34,0.91,3.51,1.38c0.67,0.27,1.33,0.54,1.99,0.81c2.74,1.11,0.29,0.23-0.97-0.42
						c4.67,2.42,9.61,4.27,14.23,6.84c1.77,0.98,3.47,2.06,5.18,3.14c3.22,2.04-0.92-0.72-1.05-0.89c0.4,0.52,1.28,1.3,1.82,1.71
						c1.86,1.44-2.96-4.61-1.65-1.98c-2.26-4.54-2.91-9.35-0.83-14.14c1.71-3.94,5.56-7.33,8.93-8.15c-1.65,0.4,3.95-0.47,3.36-0.47
						c-2.73,0.01,4.89,1.29,1.99,0.35c-1.08-0.35-2.23-0.62-3.33-0.94c-0.45-0.13-0.88-0.37-1.33-0.49
						c-2.17-0.58,3.75,1.74,1.67,0.72c-2.7-1.33-5.4-2.6-8.05-4.03c-4.2-2.27-8.3-4.82-12.66-6.78c-7.86-3.54-16.05-4.27-24.5-5.54
						c-3.92-0.59-7.81-1.33-11.56-2.61c-0.62-0.21-3.24-1.43-1.02-0.33c2.48,1.22-1.27-0.73-1.74-0.99
						c-2.45-1.35-4.72-2.95-6.95-4.63c-7.76-5.85-21.02-1.49-25.31,6.64C586.88,302.03,590.38,311.36,598.66,317.61L598.66,317.61z"
						/>
				</g>
			</g>
		</g>
		<g>
			<defs>
				<polygon id="SVGID_21_" points="408.9,94.2 411.71,82.88 412.94,62.32 408.9,46.08 407.13,27.92 403.85,23.48 400.23,19.51 
					401.06,12.9 398.39,8.86 393.84,7.27 393.27,10.34 393.84,14.11 392.09,17.55 381.81,32.05 373.8,44.37 371.67,58.2 
					374.35,68.56 380.89,75.44 388.08,80.61 391.27,88.02 401.18,93.35 407.53,98.35 			"/>
			</defs>
			<clipPath id="SVGID_22_">
				<use xlink:href="#SVGID_21_"  style="overflow:visible;"/>
			</clipPath>
			<g class="st11">
				<g>
					<path class="st1" d="M369.09,8.49c0.01,0.89-0.66,7.7,0.05,3.51c-0.27,1.63-0.61,3.25-0.94,4.87c-0.98,4.84-1.96,9.76-2.31,14.7
						c-0.64,9.19,1.81,18.21,4.49,26.91c1.21,3.93,2.27,7.84,3.07,11.87c1.14,5.8-0.2-3.35,0.38,2.5c0.25,2.48,0.44,4.96,0.57,7.44
						c0.45,8.75,0.22,17.52,0.2,26.27c-0.02,9.68,8.52,18.95,18.5,18.5c10.04-0.45,18.48-8.13,18.5-18.5
						c0.03-18.26,0.66-36.88-4.52-54.6c-1.14-3.9-2.49-7.74-3.48-11.69c-0.08-0.34-1.17-5.86-0.62-1.88
						c-0.32-2.3-0.07-4.54-0.09-6.84c0.03,3.8,0.15-0.73,0.32-1.63c0.42-2.16,0.92-4.3,1.31-6.47c0.9-4.94,1.64-9.95,1.56-14.97
						c-0.16-9.67-8.4-18.95-18.5-18.5C377.7-9.57,368.92-1.88,369.09,8.49L369.09,8.49z"/>
				</g>
			</g>
		</g>
		<g>
			<defs>
				<path id="SVGID_23_" d="M361.51,441.87l-0.86,11.76l4.05,2.66l21.42-3.06l7.35-2.71l8.01-9.94l15.01-6.58l8.99-12.77l3-16.55
					l5.44-8.75h3.27h-5.39l-10.41,4.55l-5.43,0.25l-14.48-1.76l-15.6,3.06l-13.43,12.09l-6.16,10.02
					C366.29,424.15,361.92,436.23,361.51,441.87z"/>
			</defs>
			<clipPath id="SVGID_24_">
				<use xlink:href="#SVGID_23_"  style="overflow:visible;"/>
			</clipPath>
			<g class="st12">
				<g>
					<path class="st1" d="M417.93,379.33c-13.16,7.13-26.95,14.37-37.93,24.72c-4.65,4.38-8.08,10.02-11.6,15.31
						c-0.71,1.07-1.46,2.13-2.17,3.2c-2.34,3.49,2.69-2.69-0.2,0.21c-0.09,0.09-2.53,2.56-2.54,2.54c2.26-1.65,2.58-1.94,0.95-0.88
						c-1.76,0.9-1.32,0.73,1.31-0.53c3.28,11.89,6.56,23.79,9.84,35.68c11.31-4.11,20.15-11.43,29.32-19.02
						c2.17-1.79-3.48,2.4,0.51-0.35c0.83-0.57,1.65-1.16,2.49-1.71c2.08-1.35,4.25-2.49,6.5-3.53c5.02-2.32,9.57-5.32,13.66-9.08
						c15.23-14.01,15.92-35.62,15.49-54.83c-0.22-9.67-8.35-18.95-18.5-18.5c-9.84,0.44-18.73,8.13-18.5,18.5
						c0.09,3.96,0.17,7.93,0.08,11.9c-0.04,1.74-0.11,3.48-0.24,5.22c-0.02,0.32-0.28,3.13-0.29,3.13c-0.21-0.04,0.8-4.3,0.13-1.31
						c-0.34,1.52-0.62,3.05-1.06,4.55c-0.09,0.3-0.83,1.93-0.7,2.16c-0.6-1.05,1.86-3.57,0.31-0.84c-0.46,0.81-3,4.59-1.24,2.35
						c2.22-2.83-2.19,2.56-2.53,2.3c-0.12-0.09,3.45-2.2,0.77-0.68c-0.76,0.43-1.48,0.93-2.25,1.35c-1.66,0.92-3.42,1.62-5.13,2.44
						c-4.35,2.09-8.18,4.98-11.97,7.91c-3.85,2.98-7.57,6.12-11.4,9.11c1.23-0.96,1.78-1.28,0.18-0.21c-1,0.67-1.98,1.37-3.01,2.01
						c-0.78,0.48-1.71,0.87-2.45,1.41c-1.94,1.4,3.94-1.38,0.01,0.05c-9.07,3.3-16.17,12.72-12.92,22.76
						c2.95,9.12,12.93,16.21,22.76,12.92c9.15-3.06,15.39-8.73,21.08-16.31c1.54-2.05,2.98-4.17,4.39-6.32
						c0.93-1.42,1.85-2.84,2.81-4.24c0.24-0.34,0.47-0.67,0.71-1.01c1.19-1.62,0.95-1.31-0.72,0.91c0.01,0,2.17-2.29,2.3-2.41
						c0.41-0.39,4.58-3.77,2.94-2.52c-1.63,1.23,2.92-2.03,3.4-2.36c1.38-0.93,2.78-1.84,4.19-2.73c6.46-4.07,13.19-7.69,19.9-11.33
						c8.52-4.61,11.93-17.1,6.64-25.31C437.66,377.32,427.04,374.4,417.93,379.33L417.93,379.33z"/>
				</g>
			</g>
		</g>
		<g>
			<defs>
				<polygon id="SVGID_25_" points="245.49,354.16 265.57,354.46 274.69,344.24 279.78,336.96 287.01,332.92 290.74,319.17 
					296.92,313.39 301.22,305.17 296.4,286.66 297.22,281.02 295.2,280.51 285.42,297.73 256.86,311.62 245.26,318.55 238.57,329.24 
					237.96,340.33 241.14,350.67 			"/>
			</defs>
			<clipPath id="SVGID_26_">
				<use xlink:href="#SVGID_25_"  style="overflow:visible;"/>
			</clipPath>
			<g class="st13">
				<g>
					<path class="st1" d="M261.75,285.61c0.29,1.06,0.53,2.13,0.71,3.21c-0.12-0.67-0.23-1.34-0.35-2.01
						c0.04,0.67,0.03,1.34-0.02,2.01c-0.1,1.47-0.02,0.87,0.22-1.79c-0.14,0.6-0.31,1.19-0.52,1.77c-0.46,1.3-0.24,0.79,0.65-1.55
						c0.16,0.26-1.86,3.22-2,3.44c-3.96,6.18-7.49,11.47-10.09,18.46c-0.99,2.66-1.9,5.39-2.79,8.09c-0.54,1.64,1.43-2.16-0.42,0.7
						c-0.3,0.47-0.57,0.97-0.87,1.45c-0.96,1.54-2.05,3-3.13,4.46c-0.33,0.44-0.65,0.88-0.99,1.31c-0.83,1.09-0.45,0.6,1.15-1.49
						c-0.56,0.26-1.77,2.2-2.17,2.69c-1.33,1.6-2.78,3.09-4.16,4.64c-0.59,0.66-2.73,2.25,0.15,0.11c1.52-1.1,1.82-1.34,0.9-0.73
						c7.91-1.55,10.33-2.24,7.26-2.08c4.82,0.07,10.94,4.29,12.78,10.18c-0.88-2.82,0.54,5.08,0.33,2.09
						c-0.22-3.23,0.17,0.24-0.37,1.57c1.36-3.37,1.76-7.51,2.89-11.02c0.84-2.64,1.93-5.3,2.36-8.05c1.5-9.52-2.43-20.37-12.92-22.76
						c-8.86-2.02-21.15,2.7-22.76,12.92c-1.56,9.91-6.7,18.37-6.12,28.82c0.57,10.34,6.67,19.62,17.03,22.43
						c9.26,2.51,18.01-0.83,24.64-7.34c9.58-9.41,17.03-20.82,21.3-33.51c0.6-1.78,1.17-3.57,1.83-5.33
						c-1.66,4.37,1.11-1.69,1.66-2.54c1.89-2.94,4.14-5.64,5.85-8.71c5.51-9.91,6.35-20.36,3.66-31.28
						c-2.32-9.4-13.43-15.94-22.76-12.92C264.92,266.01,259.27,275.54,261.75,285.61L261.75,285.61z"/>
				</g>
			</g>
		</g>
		<g>
			<defs>
				<path id="SVGID_27_" d="M276.47,168.48c0,0,6.77-0.22,6.8-3.14c0.03-2.93-1.26-16.97-1.26-16.97l-5.54-11.12l-4.71-6.5
					l-9.23-4.39l-5.59-5.16l-1.59-8.26l-8.32-10.54l-10.82-9.11l-2.55-1.23l-0.31,2.02l2.05,12.59l-2.05,17.85l-1.52,9.72l1.52,4.84
					l2.86,3.2v11.12l7.98,11.94l13.17,4.47C257.37,169.81,276.18,170.28,276.47,168.48z"/>
			</defs>
			<clipPath id="SVGID_28_">
				<use xlink:href="#SVGID_27_"  style="overflow:visible;"/>
			</clipPath>
			<g class="st14">
				<g>
					<path class="st1" d="M211.82,85.11c-5.04,11.16-6.31,22.12-1.68,33.69c1.96,4.9,4.33,9.61,6.54,14.4
						c-2.28-4.93,1.76,4.16,2.39,5.45c0.53,1.11,1.09,2.2,1.7,3.27c3.87,6.7,9.16,11.98,15.69,16.08c5.3,3.33,11.24,5.53,16.54,8.88
						c0.53,0.33,1.06,0.67,1.57,1.03c1.63,1.18,1.31,0.93-0.95-0.76c0.04,0.44,3.23,2.46,2.96,2.91c-1.88-2.56-2.31-3.09-1.3-1.58
						c0.91,1.68,0.63,0.9-0.86-2.33c0.51,1.85,0.42,0.87-0.28-2.95c0.04-2.51,0.7-4.84,1.99-7c1.19-2,2.8-3.58,4.81-4.74
						c-1.56,0.88-0.85,0.61,2.15-0.8c-0.65,0.21-1.3,0.38-1.97,0.51c3.01-0.34,3.43-0.42,1.25-0.24c-2.13-0.08-4.23,0.03-6.37-0.18
						c3.96,0.39-1.71-0.47-2.53-0.67c-10.11-2.43-19.99-4.54-30.41-5.22c-9.79-0.64-19.62-0.37-29.42-0.58
						c-9.68-0.21-18.94,8.66-18.5,18.5c0.46,10.2,8.13,18.28,18.5,18.5c7.97,0.17,15.94,0.04,23.9,0.31c3.67,0.13,7.34,0.36,11,0.73
						c0.13,0.01,3.09,0.43,1.15,0.13c-2.15-0.33,1.55,0.31,2.01,0.39c2.07,0.4,4.12,0.89,6.16,1.42c14.74,3.81,34.48,7.63,46.58-4.62
						c11.62-11.76,6.35-29.43-5.1-39.02c-5.35-4.47-11.04-7.67-17.22-10.81c-2.07-1.05-4.17-2.08-6.17-3.27
						c-0.53-0.32-1.75-1.46-2.34-1.49c0.05,0,3.06,2.73,1.98,1.54c-0.39-0.43-0.9-0.78-1.31-1.19c-0.32-0.31-0.61-0.68-0.94-0.97
						c-1.77-1.57,0.97,0.92,1.1,1.51c-0.25-1.1-1.74-2.71-2.28-3.72c-0.37-0.68-2.31-4.56-1.36-2.63c1.57,3.19-1.67-3.91-1.52-3.57
						c-0.43-1-0.86-2-1.32-2.99c-0.77-1.68-1.61-3.34-2.4-5.01c-0.33-0.7-0.65-1.4-0.99-2.1c0.69,1.41,0.74,2.14,0.17,0.25
						c0.01,0.02-0.98-2.57-0.82-2.81c-0.42,0.64,0.31,3.43,0.1,0.58c-0.04-0.48,0.32-2.74-0.08-0.58c-0.56,3.03,1.41-3.08-0.17,0.41
						c3.98-8.8,2.82-20.31-6.64-25.31C229.04,74.2,216.08,75.7,211.82,85.11L211.82,85.11z"/>
				</g>
			</g>
		</g>
		<g>
			<g>
				<path class="st15" d="M363.15,453.23c7.68-8.08,16.52-15.27,24.67-22.72C378.34,436.6,368.93,443.32,363.15,453.23z"/>
			</g>
			<g>
				<path class="st15" d="M420.94,406.83c2.89-1.7,5.36-3.98,7.54-6.51C425.84,402.26,423.24,404.52,420.94,406.83z"/>
			</g>
			<g>
				<path class="st15" d="M400.37,429.28c-0.11,0-0.2,0.02-0.31,0.06"/>
			</g>
			<g>
				<path class="st15" d="M376.45,444.73c0.82-0.2,1.77-0.51,2.44-0.87C378.04,444.03,377.2,444.32,376.45,444.73z"/>
			</g>
			<g>
				<path class="st15" d="M389.12,427.24c10.19-5.26,20.58-10.54,29.2-18.24C408.81,414.43,396.2,420.93,389.12,427.24z"/>
			</g>
			<g>
				<path class="st15" d="M370.34,450.52c6.02-0.52,11.8-2.31,17.24-4.88C381.8,446.83,375.76,448.64,370.34,450.52z"/>
			</g>
			<g>
				<path class="st15" d="M369.05,439.09c4.72-6.51,8.9-13.59,13.57-20C376.55,424.42,371.98,431.83,369.05,439.09z"/>
			</g>
			<g>
				<path class="st15" d="M364.7,447.71c1.64-5.33,3.5-10.57,4.9-15.97c0.74-2.57,1.43-4.93,2.85-7.12
					C367.12,430.83,365.59,440.1,364.7,447.71z"/>
			</g>
			<g>
				<path class="st15" d="M418.3,425.68c4.36-6.3,5.73-13.91,8.22-20.99C422.51,411.08,420.94,418.78,418.3,425.68z"/>
			</g>
			<g>
				<path class="st15" d="M419.33,402.41c-6.61,1.66-12.87,2.22-19.48,3.02c-1.34,0.12-2.93,0.27-4.12,0.43
					c0.69,0.03,1.35,0.09,2.04,0.13c7.03,0.5,14.33,0.11,20.93-2.55c1.68-0.69,3.31-1.59,4.55-2.94
					C421.97,401.52,420.83,401.96,419.33,402.41z"/>
			</g>
			<g>
				<path class="st15" d="M146.75,521.38c7.03-3.02,13.67-6.92,19.81-11.48c4.41-3.07,8.49-6.74,13.34-9.14
					C167.48,505,157.69,514.4,146.75,521.38z"/>
			</g>
			<g>
				<path class="st15" d="M108.93,535.4c-9.34,1.76-19.03,4.14-28.25,5.33c-1.66,0.24-3.44,0.42-5.02,0.56
					c0.51,0.02,1.03,0.05,1.53,0.07c10.36,0.36,20.64-1.27,30.78-3.22c11.39-2.17,22.66-5.35,33.13-10.41
					C130.57,531.12,119.72,533.18,108.93,535.4z"/>
			</g>
			<g>
				<path class="st15" d="M95.53,542.76c6.63,2.1,13.72,2.31,20.44,0.43C109.16,543.5,102.29,543.19,95.53,542.76z"/>
			</g>
			<g>
				<path class="st15" d="M85.62,538.74c8.56-2.26,16.75-6.14,23.69-11.65C101.44,530.86,93.11,534.73,85.62,538.74z"/>
			</g>
			<g>
				<path class="st15" d="M146.12,512.07c-7.39,5.96-13.55,12.31-21.69,16.99c-0.72,0.43-1.54,0.83-2.28,1.16
					c1.03-0.29,2.04-0.67,3.02-1.11c10.07-4.26,18.16-12.06,25.53-17.33c8.67-5.93,18.14-11.01,27.87-14.78
					C166.95,499.78,155.57,504.64,146.12,512.07z"/>
			</g>
			<g>
				<path class="st15" d="M119.61,381.92c14.71,0.32,27.92,3.21,42.83,6.97C149.19,382.58,134.03,379.33,119.61,381.92z"/>
			</g>
			<g>
				<path class="st15" d="M58.56,370.08c-0.68-0.16-1.86-0.47-2.24-0.51c1.3,0.49,2.58,0.99,3.87,1.54c6.21,2.6,13.3,5.98,20.21,7.88
					c8.04,2.17,16.45,3.07,24.76,2.82C89.17,379.89,73.99,374.36,58.56,370.08z"/>
			</g>
			<g>
				<path class="st15" d="M91.23,386.37c3.67,1.92,7.64,3.24,11.76,3.74C99.13,388.84,95.1,387.34,91.23,386.37z"/>
			</g>
			<g>
				<path class="st15" d="M99.76,369.62c3.64-0.34,7.14-1.26,10.63-2.3C106.83,367.75,103.05,368.43,99.76,369.62z"/>
			</g>
			<g>
				<path class="st15" d="M87.69,368.78c-4.67,1.82-6.85,2.93-11.17,4.59c9.56-1.9,18.85-5.35,27.39-10.03
					C98.57,365.29,92.97,366.55,87.69,368.78z"/>
			</g>
			<g>
				<path class="st15" d="M142.74,376.74c6.38,3.15,13.18,5.5,19.7,8.13C156.58,380.79,149.57,378.24,142.74,376.74z"/>
			</g>
			<g>
				<path class="st15" d="M133.28,396.24c-8.62,3.02-15.32,4.05-24.16,3.83c-1.59-0.02-3.65-0.15-4.99-0.2
					c1.06,0.25,2.15,0.49,3.22,0.72c7.34,1.71,15.16,1.39,22.12-1.7c2.75-1.21,5.66-2.53,7.7-4.77
					C135.96,395.23,134.5,395.72,133.28,396.24z"/>
			</g>
			<g>
				<path class="st15" d="M194.5,328.94c0.36,11.08,2.94,21.89,4.83,32.75C199.75,350.58,197.19,339.64,194.5,328.94z"/>
			</g>
			<g>
				<path class="st15" d="M187.56,259.62c-1.75,11.51-0.36,23.38,1.32,34.52C189.6,282.59,188.26,271.11,187.56,259.62z"/>
			</g>
			<g>
				<path class="st15" d="M191.08,301.17c-0.94,4.07-0.79,8.4,0.09,12.42C191.31,309.45,191.19,305.3,191.08,301.17z"/>
			</g>
			<g>
				<path class="st15" d="M187.52,335.14c-2.11-5.84-4.68-11.53-6.83-17.35c1.86,10.12,5.03,20.64,11.75,28.63
					C190.18,342.75,189.04,339.17,187.52,335.14z"/>
			</g>
			<g>
				<path class="st15" d="M207.87,316.94c-0.13-0.51-0.27-1.07-0.4-1.54c0.08,0.96,0.13,1.93,0.18,2.89
					c0.51,10.88,0.02,20.49-2.48,30.52C209.99,338.96,210.71,327.5,207.87,316.94z"/>
			</g>
			<g>
				<path class="st15" d="M168.49,315.55c1.25,9.09,4.1,18.24,9.76,25.59C174.49,333.08,171.71,323.99,168.49,315.55z"/>
			</g>
			<g>
				<path class="st15" d="M271.75,319.75c5.64-4.01,11.28-8.33,15.25-13.94C282.09,310.26,275.82,314.92,271.75,319.75z"/>
			</g>
			<g>
				<path class="st15" d="M242.73,352.04c0.81-1.9,1.75-3.67,3.11-5c5.42-5.6,10.74-11.49,16.66-16.54
					C254.8,334.49,242.61,346.11,242.73,352.04z"/>
			</g>
			<g>
				<path class="st15" d="M264,325.35c2.87-2.41,5.47-5.13,8.2-7.7C268.9,319.47,266.13,322.35,264,325.35z"/>
			</g>
			<g>
				<path class="st15" d="M270.91,332.38c4.79-4.75,8.91-10.17,12.14-16.1C278.73,321.26,274.07,326.98,270.91,332.38z"/>
			</g>
			<g>
				<path class="st15" d="M255.54,140.58c-1.01-1.5-2.26-3.5-3.1-4.75c0.52,1.3,1.05,2.58,1.62,3.85c4.1,9.29,10.81,19.14,21.4,21.23
					C266.23,157,261.11,148.57,255.54,140.58z"/>
			</g>
			<g>
				<path class="st15" d="M233.35,89.4c3.38,5.62,4.88,11.71,6.56,18.33c2.15,8.28,4.36,16.61,7.81,24.45
					C244.14,117.97,242.71,100.22,233.35,89.4z"/>
			</g>
			<g>
				<path class="st15" d="M239.95,132.37c0.18,4.66,1.52,9.18,3.42,13.43C242.57,141.32,241.21,136.46,239.95,132.37z"/>
			</g>
			<g>
				<path class="st15" d="M244.2,107.16c2.74,6.22,6.71,11.76,10.18,17.59C252.33,118.31,248.37,112.57,244.2,107.16z"/>
			</g>
			<g>
				<path class="st15" d="M235.88,113.78c-1.01,7.12-1.32,14.3-1.28,21.49C236.24,128.24,236.55,120.93,235.88,113.78z"/>
			</g>
			<g>
				<path class="st15" d="M236.84,108.74c-0.14,7.45,1.39,14.71,2.59,22.01C239.93,123.34,238.43,115.97,236.84,108.74z"/>
			</g>
			<g>
				<path class="st15" d="M317.06,81.25c2.35,9.79,4.99,19.55,9.6,28.57C324.22,100.33,321.24,89.33,317.06,81.25z"/>
			</g>
			<g>
				<path class="st15" d="M306.92,14.11c-3.83,21.04,4.26,41.55,8.85,61.79C314.29,54.83,306.31,34.76,306.92,14.11z"/>
			</g>
			<g>
				<path class="st15" d="M327,96.37c0,5.02,0.58,9.78,1.25,14.49C328.7,106.04,328.2,100.96,327,96.37z"/>
			</g>
			<g>
				<path class="st15" d="M315.8,98.29c0.92,3.76,2.53,7.27,4.37,10.66C319.19,105.25,317.55,101.54,315.8,98.29z"/>
			</g>
			<g>
				<path class="st15" d="M296.08,78.73c-0.45-5.47-1.34-10.97-1.83-16.41c-0.92,8.03-0.13,16.37,2.71,23.95
					C296.41,83.83,296.35,81.32,296.08,78.73z"/>
			</g>
			<g>
				<path class="st15" d="M400.17,76.62c1.36,7.03,3.43,14.19,7.36,20.22C405.16,90.16,403.09,82.93,400.17,76.62z"/>
			</g>
			<g>
				<path class="st15" d="M398.39,62.07c0.2,3.04,0.81,6.05,1.85,8.93C399.97,68.02,399.33,64.71,398.39,62.07z"/>
			</g>
			<g>
				<path class="st15" d="M395.22,8.38c0.09,8.49-0.76,16.95-0.8,25.45c0.38,6.71,0.65,13.41,0.67,20.12
					c1.14-6.69,1.7-13.41,1.56-20.19C396.94,25.29,396.74,16.64,395.22,8.38z"/>
			</g>
			<g>
				<path class="st15" d="M473.6,78.43c-0.67,0.27-1.32,0.54-1.97,0.82c-7.46,2.98-14.57,7.1-20.19,12.92
					c-4.56,4.77-7.86,10.53-11.59,15.94c4.47-4.54,8.3-9.67,12.85-14.1c1.3-1.23,2.55-2.35,3.76-3.42
					c-4.72,5.33-8.44,11.53-12.02,17.68c5.96-6.58,10.99-14.53,16.29-21.2c3.09-2.41,6.29-4.57,10.21-6.96
					C471.79,79.55,472.86,78.91,473.6,78.43z"/>
			</g>
			<g>
				<path class="st15" d="M517.22,43.44c-7.97,5.03-13.97,12.33-20.73,18.76c-2.38,2.24-5.07,4.14-7.5,6.35
					c-0.04,0.04-0.07,0.07-0.04,0.12c0.04,0.04,0.09,0,0.13-0.02c-0.05,0.04-0.11-0.01-0.07-0.07c0.47-0.38,1.03-0.63,1.54-0.94
					c3.45-1.9,6.81-4.01,9.79-6.6c4.97-4.43,9.2-9.73,13.81-14.53c-2.44,4.9-3.94,9.88-6,15.03c-1.86,4.19-4.79,10.59-6.76,15.58
					c3.05-4.99,6.47-9.85,8.58-15.32c1.9-4.7,2.95-11.11,4.21-15.33C515.19,45.43,516.18,44.41,517.22,43.44z"/>
			</g>
			<g>
				<path class="st15" d="M505.12,145.27c0.94-1.6,2.13-2.89,3.45-4.28c3.99-3.9,8.17-7.66,12.34-11.39
					C514.48,133.33,507.9,138.17,505.12,145.27z"/>
			</g>
			<g>
				<path class="st15" d="M550.08,111.9c-0.27,0.18-0.56,0.34-0.85,0.52c0.51-0.43,1.03-0.87,1.5-1.34
					c-6.78,4.32-14.33,7.23-21.11,11.55c2.51-0.94,5.06-1.93,7.56-3.04c-3,1.75-5.97,3.54-8.84,5.53
					c-7.79,5.58-14.87,12.29-20.07,20.38c11.55-13.64,25.71-20.58,40.28-31.97c1.23-0.97,2.75-2.22,3.76-3.11
					C551.58,110.92,550.83,111.41,550.08,111.9z"/>
			</g>
			<g>
				<path class="st15" d="M556.41,104.04c4.5-5.26,8.75-10.81,11.95-16.94C563.78,92.29,559.77,98,556.41,104.04z"/>
			</g>
			<g>
				<path class="st15" d="M555.59,117.7c8.2-9.83,11.24-22.86,15.87-34.68C564.34,93.97,561.52,106.75,555.59,117.7z"/>
			</g>
			<g>
				<path class="st15" d="M487.9,207.79c8.35-0.65,16.77-3.4,23.98-7.3C503.78,202.6,495.89,205.35,487.9,207.79z"/>
			</g>
			<g>
				<path class="st15" d="M519.16,195.95c12.13-4.32,23.53-11.3,33.63-19.39C541.24,182.43,530.28,189.32,519.16,195.95z"/>
			</g>
			<g>
				<path class="st15" d="M664.5,193.17c-10.65,10-20.69,20.95-32.66,28.73c14.35-6.07,25.41-17.8,34.37-30.22
					c0.2-0.29,0.44-0.62,0.56-0.85C666.03,191.63,665.28,192.41,664.5,193.17z"/>
			</g>
			<g>
				<path class="st15" d="M596.82,256.46c6.95-3.18,12.9-8.4,18.54-13.37C608.55,246.66,602.71,251.96,596.82,256.46z"/>
			</g>
			<g>
				<path class="st15" d="M594.85,252.86c1.97-1.95,3.7-4.23,5.15-6.54C597.96,248.22,596.33,250.49,594.85,252.86z"/>
			</g>
			<g>
				<path class="st15" d="M593.53,244.47c0.69-0.76,1.45-1.71,1.88-2.53C594.65,242.68,594.03,243.53,593.53,244.47z"/>
			</g>
			<g>
				<path class="st15" d="M618.72,247.18c-2.86,2.11-4.81,4.03-8.19,5.87c7.5-2.62,14.55-8.59,19.39-14.14
					C626.47,241.47,621,245.4,618.72,247.18z"/>
			</g>
			<g>
				<path class="st15" d="M623.51,319.33c-9.4-2.68-18.92-5.01-28.2-8.1c17.44,8.4,37.03,14.5,56.1,15.87
					C641.94,325.17,632.78,322.04,623.51,319.33z"/>
			</g>
			<g>
				<path class="st15" d="M666.3,323.49c7.38,2.57,15.28,4.34,23.08,2.93C681.55,326.31,674.06,324.25,666.3,323.49z"/>
			</g>
			<g>
				<path class="st15" d="M502.95,341.65c12.59,14.55,28.59,25.67,41.91,39.47C533.82,365.05,517.73,353.9,502.95,341.65z"/>
			</g>
			<g>
				<path class="st15" d="M500.6,348.77c1.54,2.65,3.78,5.33,5.95,7.23C504.77,353.41,502.68,351.1,500.6,348.77z"/>
			</g>
			<g>
				<path class="st15" d="M509.75,343.04c0.54,0.49,1.21,0.99,1.79,1.32C511,343.85,510.4,343.4,509.75,343.04z"/>
			</g>
			<g>
				<path class="st15" d="M539.2,357.72c2.33,3.42,4.99,6.92,7.94,9.71C544.93,363.86,542.29,360.55,539.2,357.72z"/>
			</g>
		</g>
	</g>
	<g id="Layer_2">
		<g>
			<defs>
				<path id="SVGID_29_" d="M432.48,749.24c-38.37-62.28-78.05-126.67-100.47-197.92c-25.07-79.66-23.17-157.18,5.35-218.27
					c22.43-48.06,60.25-85.93,96.81-122.55l68.13-68.22l2.56,2.56l-68.13,68.22c-36.35,36.4-73.92,74.04-96.09,121.52
					c-28.14,60.27-29.98,136.86-5.17,215.65c22.28,70.82,61.84,135.02,100.1,197.11L432.48,749.24z"/>
			</defs>
			<clipPath id="SVGID_30_">
				<use xlink:href="#SVGID_29_"  style="overflow:visible;"/>
			</clipPath>
			<path class="st16" d="M435.35,750c0,0-174.59-231.4-101.25-401.23c0,0,22.62-77.3,171.78-205.07"/>
		</g>
		<g>
			<defs>
				<path id="SVGID_31_" d="M351.75,602.7c-44.97-28.72-81.14-62.74-107.51-101.11c-29.79-43.32-45.9-93.06-45.37-140.09l3.62,0.04
					c-0.53,46.29,15.37,95.3,44.73,138c26.09,37.97,61.91,71.65,106.48,100.11L351.75,602.7z"/>
			</defs>
			<clipPath id="SVGID_32_">
				<use xlink:href="#SVGID_31_"  style="overflow:visible;"/>
			</clipPath>
			<path class="st17" d="M353.7,602.7c0,0-150.35-89.61-154.84-248.24"/>
		</g>
		<g>
			<defs>
				<path id="SVGID_33_" d="M347.48,319.83l-2.08-2.96c19.36-13.59,42.13-28.92,67.24-38.77c27.03-10.6,53.61-13.3,76.87-7.83
					c15.17,3.56,29.55,10.69,43.47,17.58c19.78,9.81,38.5,19.08,59.37,19.08c0.52,0,1.04,0,1.56-0.02l0.08,3.62
					c-22.37,0.51-42.84-9.64-62.62-19.44c-13.73-6.8-27.92-13.83-42.69-17.3c-28.49-6.71-56.35,0.47-74.72,7.68
					C389.23,291.17,366.68,306.36,347.48,319.83z"/>
			</defs>
			<clipPath id="SVGID_34_">
				<use xlink:href="#SVGID_33_"  style="overflow:visible;"/>
			</clipPath>
			<path class="st18" d="M344.09,319.75c0,0,99.93-81.18,179.81-34.5c0,0,33.01,21.62,71.41,25.98"/>
		</g>
		<g>
			<defs>
				<path id="SVGID_35_" d="M326.93,360.61c-8.45-30.19-17.99-64.25-14.67-95.96c1.83-17.48,7.31-34.45,12.61-50.87
					c2.72-8.43,5.53-17.16,7.81-25.82c8.24-31.37,6.61-56.76-4.82-75.48l3.08-1.88c11.97,19.58,13.73,45.92,5.23,78.28
					c-2.3,8.76-5.13,17.53-7.87,26.01c-5.24,16.24-10.66,33.03-12.45,50.14c-3.25,31.02,6.19,64.73,14.52,94.47L326.93,360.61z"/>
			</defs>
			<clipPath id="SVGID_36_">
				<use xlink:href="#SVGID_35_"  style="overflow:visible;"/>
			</clipPath>
			<path class="st19" d="M330.14,358.66c0,0-37.84-91.76,1.36-153.74c0,0,17.03-67.69-5.68-97.9"/>
		</g>
		<g>
			<defs>
				<path id="SVGID_37_" d="M335.09,549.54l-3.59-0.39c3.67-33.39,14.66-67.82,30.94-96.95l3.16,1.77
					C349.54,482.68,338.71,516.63,335.09,549.54z"/>
			</defs>
			<clipPath id="SVGID_38_">
				<use xlink:href="#SVGID_37_"  style="overflow:visible;"/>
			</clipPath>
			<path class="st20" d="M332.02,551.32c0,0,13.39-77.4,33.58-99.12"/>
		</g>
		<g>
			<defs>
				<path id="SVGID_39_" d="M180.91,502.45l-1.96-3.04c18.8-12.19,44.13-14.06,64.55-4.78l-1.5,3.29
					C222.69,489.15,198.71,490.92,180.91,502.45z"/>
			</defs>
			<clipPath id="SVGID_40_">
				<use xlink:href="#SVGID_39_"  style="overflow:visible;"/>
			</clipPath>
			<path class="st21" d="M245.72,496.67c0,0-37.07-14.51-65.82,4.08"/>
		</g>
		<g>
			<defs>
				<path id="SVGID_41_" d="M382.9,269.68l-3.51-0.85c3.58-14.78,11.16-28.24,18.49-41.25c7.06-12.53,14.37-25.49,17.91-39.45
					c1.75-6.85,2.62-14.07,3.46-21.04c0.65-5.36,1.31-10.9,2.37-16.31c3.13-15.94,9.87-31.28,19.49-44.37l2.91,2.14
					c-9.31,12.66-15.83,27.5-18.85,42.92c-1.04,5.28-1.7,10.75-2.33,16.04c-0.85,7.09-1.74,14.43-3.55,21.51
					c-3.67,14.42-11.09,27.59-18.27,40.33C393.81,242.15,386.36,255.38,382.9,269.68z"/>
			</defs>
			<clipPath id="SVGID_42_">
				<use xlink:href="#SVGID_41_"  style="overflow:visible;"/>
			</clipPath>
			<path class="st22" d="M380.56,271.62c0,0,11.15-30.02,25.89-53.94c11.58-18.8,16.81-71.79,16.81-71.79s5.94-21.73,20.77-41.85"/>
		</g>
		<g>
			<defs>
				<path id="SVGID_43_" d="M501.09,341.83c-14.89-32.33-51.05-57.1-87.93-60.24l0.31-3.6c38.11,3.24,75.5,28.87,90.91,62.33
					L501.09,341.83z"/>
			</defs>
			<clipPath id="SVGID_44_">
				<use xlink:href="#SVGID_43_"  style="overflow:visible;"/>
			</clipPath>
			<path class="st23" d="M411.71,279.22c0,0,57.49,0.3,93.22,64.49"/>
		</g>
		<g>
			<defs>
				<path id="SVGID_45_" d="M317.6,238.56c-6.7-34.98-18.33-57-36.61-69.29l2.02-3c25.13,16.89,33.81,48.96,38.14,71.61L317.6,238.56
					z"/>
			</defs>
			<clipPath id="SVGID_46_">
				<use xlink:href="#SVGID_45_"  style="overflow:visible;"/>
			</clipPath>
			<path class="st24" d="M320.14,232.84c1.19,27.95-8.55-54.82-40.76-66.56"/>
		</g>
		<g>
			<defs>
				<path id="SVGID_47_" d="M216.61,449.86c-3.9-33.69,5.67-68.45,26.24-95.39l2.87,2.2c-20.01,26.19-29.31,60.01-25.52,92.78
					L216.61,449.86z"/>
			</defs>
			<clipPath id="SVGID_48_">
				<use xlink:href="#SVGID_47_"  style="overflow:visible;"/>
			</clipPath>
			<path class="st25" d="M217.31,452.2c0,0-2.67-58.99,28.42-98.28"/>
		</g>
		<g>
			<defs>
				<path id="SVGID_49_" d="M491.07,273.55l-1.43-3.32c1.85-0.79,3.7-1.62,5.55-2.44c8-3.56,16.26-7.24,25.12-8.72
					c10.25-1.72,20.66-0.37,30.74,0.92c2.47,0.32,4.93,0.63,7.39,0.91c10.85,1.2,24.71,1.76,35.72-4.7l1.83,3.12
					c-11.92,6.99-26.55,6.43-37.94,5.17c-2.48-0.28-4.96-0.6-7.45-0.91c-9.81-1.26-19.95-2.57-29.68-0.94
					c-8.4,1.4-16.46,4.99-24.25,8.46C494.79,271.92,492.93,272.75,491.07,273.55z"/>
			</defs>
			<clipPath id="SVGID_50_">
				<use xlink:href="#SVGID_49_"  style="overflow:visible;"/>
			</clipPath>
			<path class="st26" d="M491.18,273.55c0,0,23.02-22.66,74.94-8.68c0,0,24.35-1.43,30.79-8.78"/>
		</g>
		<g>
			<defs>
				<path id="SVGID_51_" d="M204.27,409.3c-9.66-12.06-25.24-18.83-40.64-17.71l-0.26-3.6c16.58-1.23,33.33,6.08,43.72,19.05
					L204.27,409.3z"/>
			</defs>
			<clipPath id="SVGID_52_">
				<use xlink:href="#SVGID_51_"  style="overflow:visible;"/>
			</clipPath>
			<path class="st27" d="M206.38,406.18c0,0-18.81-14.91-41.04-18.29"/>
		</g>
		<g>
			<defs>
				<path id="SVGID_53_" d="M431.4,217.68l-1.13-3.44c17.38-5.71,35.46-8.6,53.74-8.6c0.17,0,0.34,0,0.5,0l-0.01,3.62
					c-0.17,0-0.33,0-0.49,0C466.12,209.25,448.43,212.08,431.4,217.68z"/>
			</defs>
			<clipPath id="SVGID_54_">
				<use xlink:href="#SVGID_53_"  style="overflow:visible;"/>
			</clipPath>
			<path class="st28" d="M430.28,214.56c0,0,47.56-11.47,54.23-6.77"/>
		</g>
		<g>
			<defs>
				<path id="SVGID_55_" d="M426.19,135.55c-5.02-14.71-12.22-27.67-19.75-35.54l2.61-2.5c7.88,8.24,15.37,21.68,20.55,36.87
					L426.19,135.55z"/>
			</defs>
			<clipPath id="SVGID_56_">
				<use xlink:href="#SVGID_55_"  style="overflow:visible;"/>
			</clipPath>
			<path class="st29" d="M428.92,134.07c0,0-13.49-30.61-22.48-36.96"/>
		</g>
		<g>
			<defs>
				<path id="SVGID_57_" d="M570.67,424.94l-5.06-8.98c-1.14-2.03-3.67-3.01-6.33-4.05l-1.53-0.6c-3.96-1.64-7.94-4.99-7.24-9.49
					c0.05-0.31,0.12-0.65,0.2-0.98c0.08-0.33,0.19-0.74,0.15-0.89c-0.02-0.1-0.19-0.51-1.82-1.05l-30.58-10.29
					c-4.01-1.36-9-3.04-12.13-6.98c-1.19-1.49-1.99-3.15-2.77-4.76c-0.39-0.8-0.77-1.6-1.21-2.38c-1-1.75-2.3-3.38-3.67-5.1
					c-2.51-3.15-5.1-6.41-5.85-10.6c-0.92-5.04,1.07-9.23,2.91-11.85c2.45-3.52,5.72-5.9,7.89-6.61c4.58-5.04,11.82-7.68,18.7-6.63
					c6.34,0.99,11.68,4.74,16.4,8.06c6.89,4.86,14.69,10.36,19.04,18.5c3.04,5.67,4.13,12.2,5.09,17.96L570.67,424.94z
					M519.28,337.09c-5.09,0-10.07,2.25-13.29,6.03l-0.42,0.49l-0.64,0.11c-0.85,0.15-3.85,1.88-6.23,5.29
					c-1.44,2.06-3.01,5.32-2.31,9.14c0.59,3.3,2.79,6.07,5.12,9c1.39,1.75,2.83,3.56,3.98,5.56c0.48,0.84,0.9,1.71,1.33,2.59
					c0.72,1.49,1.41,2.9,2.35,4.08c2.47,3.11,6.72,4.55,10.46,5.81l30.56,10.28c0.99,0.33,3.66,1.2,4.2,3.67
					c0.23,0.98,0.02,1.86-0.16,2.56c-0.05,0.21-0.11,0.43-0.14,0.65c-0.36,2.29,2.28,4.47,5.04,5.61l1.46,0.58
					c1.3,0.51,2.68,1.04,3.97,1.74l-5.26-31.48c-0.96-5.75-1.96-11.7-4.71-16.85c-3.95-7.38-11.38-12.63-17.94-17.25
					c-4.39-3.08-9.37-6.59-14.87-7.44C520.96,337.15,520.12,337.09,519.28,337.09z"/>
			</defs>
			<clipPath id="SVGID_58_">
				<use xlink:href="#SVGID_57_"  style="overflow:visible;"/>
			</clipPath>
			<path class="st30" d="M503.57,341.83c0,0-19.2,11.03,0,33.17c0,0,4.6,3.45,4.75,6.12c0.15,2.67,41.14,16.77,41.14,16.77
				s3.67,0.52,2.69,4.27s10.78,9.43,10.78,9.43l7.73,13.35l-11.16-57.52C559.51,367.42,528.21,317.37,503.57,341.83z"/>
		</g>
		<g>
			<defs>
				<path id="SVGID_59_" d="M120.91,561.3L120.91,561.3c-1.76,0-3.52-0.15-5.23-0.44c-7.42-1.28-14-5.3-20.36-9.19
					c-7.78-4.76-15.14-9.27-23.46-8.71l-0.27-3.61c11.28-0.98,22.22-6.88,29.26-15.78l0.55-0.69c1.56-1.99,3.31-4.25,6.03-5.25
					c2.07-0.74,3.79-0.6,5.35-0.54c0.77,0.02,1.54,0.05,2.31,0c6.27-0.42,10.39-5.92,14.75-11.73c1.74-2.31,3.53-4.7,5.49-6.78
					c5.91-6.24,14.64-9.82,23.96-9.82c8.08,0,15.63,2.69,21.28,7.58l0.4,0.34l0.15,0.5c1.79,5.92-0.43,12.78-6.43,19.84
					c-0.76,0.89-1.54,1.77-2.33,2.66c-3.5,3.95-7.11,8.02-8.3,12.9c-0.2,0.79-0.33,1.6-0.47,2.4c-0.33,1.93-0.67,3.93-1.74,5.8
					c-1.28,2.17-3.3,3.62-5.08,4.91C145.66,553.6,133.78,561.3,120.91,561.3z M82.1,540.82c5.3,1.76,10.26,4.79,15.11,7.76
					c6.07,3.71,12.36,7.56,19.09,8.71c1.51,0.26,3.06,0.39,4.61,0.39c11.8,0,23.13-7.37,33.72-14.92c1.67-1.2,3.22-2.31,4.1-3.82
					c0.74-1.28,1.02-2.89,1.31-4.58c0.15-0.89,0.31-1.79,0.52-2.66c1.4-5.73,5.32-10.15,9.1-14.43c0.77-0.87,1.54-1.73,2.28-2.6
					c3.5-4.12,7.3-10.18,5.86-15.96c-4.94-4.1-11.49-6.36-18.5-6.36c-8.33,0-16.11,3.17-21.34,8.69c-1.82,1.92-3.55,4.23-5.22,6.46
					c-4.66,6.21-9.48,12.63-17.4,13.17c-0.87,0.06-1.77,0.03-2.67,0c-1.62-0.05-3.04-0.02-4,0.33c-1.74,0.63-3.04,2.31-4.42,4.07
					l-0.56,0.71C98.2,532.75,90.53,538.01,82.1,540.82z"/>
			</defs>
			<clipPath id="SVGID_60_">
				<use xlink:href="#SVGID_59_"  style="overflow:visible;"/>
			</clipPath>
			<path class="st31" d="M179.9,500.27c0,0,0.33,12.32-15.28,26l-3.77,12.48c0,0-16.81,16.45-35.36,20.59
				c-18.55,4.13-43.39-17.91-43.39-17.91H69.93c0,0,20.11-2.75,26.27-10.56c6.15-7.81,11.39-11.66,11.39-11.66l11.3-1.1
				c0,0,9.18-3.31,18.55-19.56C137.43,498.53,160.19,480.24,179.9,500.27z"/>
		</g>
		<g>
			<defs>
				<path id="SVGID_61_" d="M263.79,172.09c-3.06,0-6.03-0.32-8.83-0.96c-8.99-2.06-18.75-8.84-20.3-19.35
					c-0.18-1.22-0.24-2.48-0.3-3.72c-0.11-2.25-0.21-4.38-1.06-6.17c-0.28-0.58-0.65-1.13-1-1.69c-0.53-0.82-1.05-1.64-1.43-2.54
					c-1.54-3.63-0.57-7.52,0.28-10.95l0.17-0.69c2.72-11.11,2.65-22.85-0.19-33.95l-1.03-4.05l3.66,2.02
					c10.09,5.56,16.94,13.91,21.77,20.56c1.36,1.89,2.71,3.93,3.07,6.35c0.09,0.59,0.12,1.2,0.14,1.81c0.02,0.54,0.03,1.07,0.14,1.6
					c0.57,2.82,3.78,4.22,7.17,5.72c0.99,0.43,1.97,0.87,2.88,1.33c6.16,3.15,11.07,9.58,13.45,17.66
					c2.09,7.05,2.22,14.44,2.35,21.58l0.03,1.33l-1.25,0.48C276.19,170.89,269.75,172.09,263.79,172.09z M235.57,95.39
					c2.02,10.4,1.77,21.2-0.75,31.49l-0.17,0.69c-0.75,3.03-1.53,6.15-0.46,8.67c0.3,0.71,0.72,1.35,1.14,1.99
					c0.43,0.67,0.86,1.35,1.22,2.07c1.18,2.47,1.3,5.06,1.42,7.57c0.05,1.13,0.11,2.27,0.27,3.37c1.3,8.77,10,14.63,17.53,16.35
					c7.29,1.66,15.49,0.97,25.31-2.17c-0.12-6.54-0.35-13.19-2.18-19.35c-2.11-7.13-6.35-12.76-11.63-15.46
					c-0.85-0.43-1.77-0.83-2.69-1.24c-3.9-1.71-8.32-3.65-9.26-8.31c-0.15-0.72-0.18-1.46-0.21-2.2c-0.02-0.46-0.03-0.93-0.1-1.39
					c-0.24-1.63-1.28-3.19-2.43-4.77C248.58,107.21,243.13,100.47,235.57,95.39z"/>
			</defs>
			<clipPath id="SVGID_62_">
				<use xlink:href="#SVGID_61_"  style="overflow:visible;"/>
			</clipPath>
			<path class="st32" d="M283.21,167.44c0,0-44.6,15.35-47.8-23.74c0,0-1.78-8.35-3.57-9.45c-1.78-1.1,6.38-28.35,2.76-37.87
				s-6.19-11.35-6.19-11.35s29.39,26.08,28.96,29.82c-0.43,3.73-1.16,7.16,0.79,9.12c1.96,1.96,14.69,6.18,15.43,8.41
				C274.33,134.61,284.37,138.06,283.21,167.44z"/>
		</g>
		<g>
			<defs>
				<path id="SVGID_63_" d="M108.62,406.67c-4.19,0-9.43-0.48-12.76-4.24c-0.83-0.94-1.45-1.99-2.05-2.99
					c-0.86-1.45-1.6-2.71-2.74-3.3c-1.14-0.59-2.97-0.42-4.77-0.17c-1.83,0.25-3.73,0.43-5.3,0.1c-4.63-0.97-6.87-5.24-8.84-9.01
					c-0.57-1.09-1.14-2.19-1.77-3.18c-3.13-5.03-8.83-8.65-16.93-10.77c-1.43-0.22-2.86-0.54-4.24-0.94l0.83-3.51
					c1.38,0.25,2.77,0.56,4.14,0.91c1.59,0.24,3.25,0.36,4.93,0.36c8.94,0,18.22-3.38,27.21-6.65c4.5-1.64,9.16-3.33,13.77-4.61
					c14.21-3.93,28.54-3.55,40.42,1.11c13.56,5.33,24.03,16.6,27.32,29.43l0.62,2.41l-2.48-0.15c-11.37-0.74-24.07,3.46-34.27,11.17
					l-0.42,0.31c-1.25,0.94-2.55,1.92-4.14,2.55c-1.93,0.75-3.97,0.81-5.78,0.86l-10.62,0.31
					C110.04,406.66,109.33,406.67,108.62,406.67z M88.97,392.08c1.45,0,2.68,0.28,3.76,0.84c2.05,1.07,3.18,2.98,4.18,4.66
					c0.54,0.91,1.05,1.76,1.65,2.45c2.37,2.68,6.61,3.02,10.05,3.02c0.68,0,1.35-0.02,2.01-0.03l10.63-0.31
					c1.59-0.05,3.22-0.1,4.56-0.62c1.13-0.44,2.17-1.23,3.28-2.07l0.42-0.31c10.07-7.61,22.44-11.98,33.94-11.98
					c0.06,0,0.12,0,0.18,0c-3.62-10.74-12.78-20.04-24.44-24.62c-11.14-4.37-24.67-4.7-38.13-0.99c-4.47,1.24-9.06,2.91-13.5,4.52
					c-7.74,2.82-15.7,5.71-23.68,6.6c4.18,2.27,7.38,5.18,9.57,8.7c0.67,1.07,1.29,2.24,1.9,3.42c1.76,3.36,3.42,6.53,6.39,7.15
					c1.12,0.23,2.65,0.05,4.05-0.14C86.87,392.23,87.94,392.08,88.97,392.08z"/>
			</defs>
			<clipPath id="SVGID_64_">
				<use xlink:href="#SVGID_63_"  style="overflow:visible;"/>
			</clipPath>
			<path class="st33" d="M168.49,390.12c0,0-25.37-0.61-41.16,12.94c0,0-14.9,5.55-27.56,0l-6.97-8.93c0,0-10.72,0.11-12.06,0
				c-1.35-0.11-2.45-1.6-14.57-17.39c0,0-9.55-5.5-14.33-5.68c-4.78-0.18,12.59,2.83,20.76-1.49s32.05-10.85,34.16-9.99
				c2.11,0.85,27.55-8.34,49.78,13.79L168.49,390.12z"/>
		</g>
		<g>
			<defs>
				<path id="SVGID_65_" d="M644.13,343.45c-4.85,0-9.75-1.3-14.36-2.63l-18.42-5.33c-1.22-0.35-2.56-0.74-3.75-1.58
					c-1.61-1.08-2.62-2.71-3.5-4.16l-0.21-0.34c-4.16-6.72-9.53-12.56-14.23-17.38l-1.62-1.66l2.01-1.16
					c8.7-5.04,17.7-10.24,27.7-12.96c11.26-3.07,22.34-2.24,30.72,2.4c3.25,1.79,6.11,4.14,8.87,6.41c0.78,0.64,1.56,1.28,2.34,1.91
					c9.73,7.79,20.64,13.77,32.45,17.75l8.65,2.92l-9.11,0.6c-2.73,0.18-4.97,2.43-7.34,4.82c-2.65,2.68-5.66,5.71-9.84,5.87
					c-0.01,0-0.02,0-0.03,0c-2.52,0-4.45-0.79-6.32-1.54c-1.63-0.66-3.16-1.29-4.66-1.29c-2.31,0.05-4.31,1.45-6.42,2.93
					c-1.14,0.8-2.28,1.59-3.48,2.23C650.83,342.73,647.73,343.45,644.13,343.45z M593.85,311.17c4.43,4.62,9.24,10.08,13.1,16.33
					l0.22,0.35c0.76,1.24,1.48,2.41,2.47,3.07c0.74,0.51,1.68,0.79,2.68,1.08l18.45,5.34c4.36,1.26,8.99,2.49,13.36,2.49
					c3,0,5.53-0.58,7.75-1.77c1.07-0.57,2.09-1.29,3.1-2c2.46-1.73,5-3.51,8.28-3.58c0,0,0.01,0,0.01,0c2.41,0,4.35,0.79,6.22,1.55
					c1.63,0.66,3.16,1.29,4.65,1.29c2.96-0.11,5.22-2.39,7.61-4.81c1.39-1.4,2.88-2.91,4.59-4.05c-10.45-4.05-20.16-9.65-28.93-16.68
					c-0.8-0.63-1.59-1.29-2.38-1.94c-2.76-2.27-5.37-4.41-8.33-6.04c-7.56-4.19-17.68-4.9-28.02-2.08
					C609.88,302.12,601.73,306.63,593.85,311.17z"/>
			</defs>
			<clipPath id="SVGID_66_">
				<use xlink:href="#SVGID_65_"  style="overflow:visible;"/>
			</clipPath>
			<polygon class="st34" points="592.48,311.23 608,331.76 645.96,341.65 661.88,335.1 675.35,337.09 689.39,326.41 697.23,326.44 
				664.02,314.68 641.8,298.04 619.35,295.84 		"/>
		</g>
		<g>
			<defs>
				<path id="SVGID_67_" d="M509.76,226.67c-8.42,0-18-5.61-28.47-16.68l-0.72-0.76l0.3-1c4.59-15.42,18.44-22.44,29.36-22.44
					c0.55,0,1.09,0.02,1.63,0.05l1.2,0.09c1.84,0.15,3.7,0.2,4.99-0.23c0.86-0.29,1.74-0.82,2.67-1.39l0.85-0.51
					c4.39-2.56,9.13-3.87,13.31-5.03c4.13-1.15,8.27-2.31,12.41-3.48l14.97-4.21l-9.76,23.67c-0.94,2.29-1.91,4.47-3.54,6.01
					c-2.17,2.05-4.78,2.29-6.55,2.29c-0.85,0-1.71-0.06-2.57-0.12c-0.78-0.05-1.56-0.11-2.33-0.11c-1.77,0-2.94,0.32-3.9,1.08
					c-1.07,0.85-1.95,2.34-2.68,3.68c-0.53,0.97-1.05,1.97-1.57,2.96c-1.48,2.84-3.02,5.78-4.95,8.34
					C520.57,223.98,515.51,226.67,509.76,226.67z M484.65,208.27c15.43,15.99,28.86,19.08,36.86,8.44c1.76-2.32,3.15-5,4.64-7.84
					c0.53-1.01,1.06-2.03,1.6-3.02c0.91-1.65,2.01-3.51,3.61-4.78c2.11-1.67,4.52-1.86,6.14-1.86c0.85,0,1.72,0.06,2.59,0.12
					c0.78,0.05,1.56,0.11,2.32,0.11c1.91,0,3.09-0.38,4.07-1.3c1.11-1.05,1.87-2.77,2.68-4.76l6.93-16.81l-7.81,2.19
					c-4.14,1.17-8.28,2.33-12.43,3.48c-3.97,1.1-8.47,2.35-12.45,4.67l-0.8,0.47c-1.06,0.64-2.15,1.3-3.39,1.72
					c-1.81,0.61-4.1,0.6-6.44,0.41l-1.14-0.08C501.99,188.82,489.22,194.66,484.65,208.27z"/>
			</defs>
			<clipPath id="SVGID_68_">
				<use xlink:href="#SVGID_67_"  style="overflow:visible;"/>
			</clipPath>
			<path class="st35" d="M481.32,206.83c0,0,22.21,29.66,39.05,14.23c0,0,6.83-15.07,12.49-18.86c6.22-4.16,13.43-1.72,13.43-1.72
				s4.29,1.72,9.8-19.83c0,0,6.4-12,8.46-11.51l-11.76,7.42c0,0-27.57,4.68-35.9,11.49C516.9,188.05,493.99,182.32,481.32,206.83z"/>
		</g>
		<g>
			<defs>
				<path id="SVGID_69_" d="M360.08,457.74l-0.18-1.89c-1.53-16.39,2.34-31.5,10.91-42.55c7.89-10.19,20.32-16.53,32.42-16.53
					c2.69,0,5.35,0.31,7.9,0.93c0.88,0.21,1.75,0.46,2.62,0.71c1.81,0.51,3.53,1,5.25,1.13l0.47,0.01c2.11,0,4.13-1.1,6.26-2.27
					c2.53-1.38,5.39-2.94,8.91-2.94h8.72l-8.01,3.47c-3.82,1.66-5.2,6.46-5.61,8.45c-0.38,1.84-0.55,3.72-0.73,5.7
					c-0.19,2.12-0.39,4.32-0.87,6.49c-1.7,7.66-6.89,14.35-13.91,17.88c-1.16,0.59-2.37,1.09-3.59,1.59c-2,0.82-3.89,1.6-5.51,2.77
					c-1.83,1.32-3.32,3.16-4.89,5.1c-2.17,2.68-4.42,5.45-7.77,6.98c-2.27,1.04-4.73,1.34-6.89,1.62l-2.54,0.32
					c-7.56,0.95-14.99,1.89-21.1,2.77L360.08,457.74z M403.23,400.39c-11.01,0-22.34,5.8-29.57,15.12
					c-7.68,9.9-11.31,23.38-10.32,38.11c5.73-0.8,12.44-1.65,19.26-2.51l2.54-0.32c2-0.25,4.08-0.51,5.84-1.31
					c2.58-1.18,4.47-3.51,6.46-5.98c1.65-2.04,3.36-4.15,5.59-5.75c1.97-1.41,4.14-2.31,6.24-3.18c1.13-0.46,2.26-0.93,3.34-1.48
					c6.05-3.05,10.54-8.82,12.01-15.43c0.43-1.94,0.61-3.93,0.8-6.03c0.18-2,0.37-4.07,0.79-6.12c0.42-2.03,1.08-3.86,1.95-5.44
					c-0.23,0.12-0.46,0.25-0.69,0.37c-2.63,1.44-5.35,2.94-8.73,2.68c-2.09-0.15-4.07-0.71-5.98-1.26c-0.82-0.23-1.64-0.47-2.47-0.67
					C408.01,400.67,405.64,400.39,403.23,400.39z"/>
			</defs>
			<clipPath id="SVGID_70_">
				<use xlink:href="#SVGID_69_"  style="overflow:visible;"/>
			</clipPath>
			<path class="st36" d="M359.9,455.85l33.57-5.34l10.25-11.42l17.22-8.59l5.58-11.42l1.95-14.4l5.77-7.65l3.31-2.69l-16.61,7.29
				l-20.87-3.75l-20.37,8.95C379.69,406.83,359.39,420.71,359.9,455.85z"/>
		</g>
		<g>
			<defs>
				<path id="SVGID_71_" d="M256.03,357.53c-2.63,0-5.25-0.26-7.47-0.51c-2.36-0.28-4.96-0.78-6.34-2.46
					c-9.05-10.94-7.65-28.78,3-38.16c5.03-4.44,11.33-6.74,17.42-8.97c3.45-1.26,7.02-2.57,10.25-4.24
					c7.09-3.66,13.19-9.49,17.17-16.41c1.62-2.82,2.95-5.92,4.24-8.91l1.01-2.35l1.9,1.67c2.05,1.9,1.74,4.62,1.48,6.81l-0.1,0.92
					c-0.3,3.2,0.67,6.38,1.69,9.75c0.34,1.1,0.67,2.2,0.96,3.3c1.19,4.5,1.78,10.76-2.16,15c-0.84,0.93-1.8,1.63-2.73,2.31
					c-0.87,0.64-1.69,1.24-2.31,1.95c-1.6,1.83-2.02,4.46-2.47,7.24c-0.45,2.76-0.91,5.61-2.53,8.08c-1.67,2.57-4.19,4.12-6.63,5.61
					c-1.66,1.03-3.24,1.99-4.49,3.24c-1.44,1.44-2.48,3.3-3.58,5.27c-1.22,2.18-2.48,4.44-4.4,6.27
					C266.74,356.04,262.19,357.53,256.03,357.53z M294.96,285.25c-0.55,1.13-1.13,2.25-1.76,3.33c-4.33,7.52-10.95,13.84-18.65,17.82
					c-3.44,1.77-7.11,3.12-10.67,4.42c-6.04,2.21-11.75,4.3-16.27,8.28c-9.09,8.01-10.33,23.81-2.6,33.15
					c0.29,0.35,1.22,0.85,3.96,1.17c2.11,0.24,4.61,0.49,7.06,0.49c5.25,0,8.89-1.13,11.44-3.56c1.53-1.46,2.6-3.39,3.74-5.42
					c1.17-2.1,2.38-4.26,4.18-6.06c1.55-1.55,3.38-2.67,5.15-3.76c2.19-1.35,4.26-2.62,5.49-4.51c1.2-1.83,1.58-4.19,1.99-6.69
					c0.51-3.17,1.04-6.44,3.32-9.04c0.88-1.02,1.9-1.76,2.89-2.49c0.83-0.6,1.6-1.17,2.21-1.84c2.98-3.21,2.11-8.67,1.32-11.64
					c-0.28-1.06-0.6-2.11-0.92-3.17C295.82,292.37,294.77,288.91,294.96,285.25z"/>
			</defs>
			<clipPath id="SVGID_72_">
				<use xlink:href="#SVGID_71_"  style="overflow:visible;"/>
			</clipPath>
			<path class="st37" d="M242.73,355.96c0,0,20.82,4.89,26.49-5.84c5.67-10.72,14.96-14.88,14.96-14.88s6.06-3.04,6.43-15.66
				c0,0,0.94-4.34,7.91-9.67c6.97-5.34-3.32-27.19-3.32-27.19l1.65-10.1c0,0-7.53,33.9-37.29,36.7
				C259.57,309.31,226.81,318.63,242.73,355.96z"/>
		</g>
		<g>
			<defs>
				<path id="SVGID_73_" d="M598.4,259.79c-1.28,0-2.36-0.12-3.3-0.38l-0.89-0.24l-0.33-0.86c-2.86-7.43-4.52-15.2-4.94-23.07
					c-0.18-3.4-0.17-7.36,1.33-10.96c2.7-6.62,9.24-10.3,15.91-13.28c11.78-5.27,24.13-9.57,36.69-12.75l0.99-0.25
					c3.87-0.97,7.86-1.97,11.19-3.96c1.71-1.01,3.27-2.29,4.93-3.64c2.82-2.3,5.75-4.68,9.45-5.72l1.3,3.36
					c-3.96,1.98-4.7,7.41-5.41,12.66l-0.25,1.83c-2.05,13.88-10.11,26.02-17.22,36.72c-2.16,3.24-4.6,6.91-8.17,9.39
					c-3.2,2.21-6.87,3.21-10.42,4.18l-13.35,3.62C609.94,258.01,603.19,259.79,598.4,259.79z M596.91,256.09
					c3.95,0.5,11.91-1.53,18.06-3.15l13.34-3.61c3.26-0.89,6.63-1.8,9.32-3.66c3-2.09,5.15-5.31,7.22-8.42
					c6.9-10.39,14.72-22.17,16.65-35.25l0.25-1.79c0.35-2.58,0.72-5.3,1.5-7.8c-0.32,0.26-0.65,0.52-0.98,0.79
					c-1.69,1.37-3.44,2.8-5.37,3.95c-3.78,2.25-8.04,3.33-12.16,4.36l-0.99,0.25c-12.36,3.14-24.51,7.36-36.1,12.55
					c-5.98,2.68-11.82,5.9-14.05,11.36c-1.22,2.94-1.22,6.4-1.06,9.39C592.94,242.22,594.4,249.3,596.91,256.09z"/>
			</defs>
			<clipPath id="SVGID_74_">
				<use xlink:href="#SVGID_73_"  style="overflow:visible;"/>
			</clipPath>
			<path class="st38" d="M594.85,257.87c0,0,43.76-7.06,45.26-11.56c0,0,20.78-28,20.55-33.58s4.99-25.76,10.09-28.06
				c0,0-14.25,11.53-16.7,11.28c-2.45-0.25-53.03,15.93-55.1,20.46s-12.43,4.87-6.46,26.8C598.45,265.14,594.85,257.87,594.85,257.87
				z"/>
		</g>
		<g>
			<defs>
				<path id="SVGID_75_" d="M438.17,112.68l0.23-2.93c0.37-4.72,2.08-9.11,3.72-13.35c0.52-1.35,1.05-2.7,1.53-4.05
					c2.64-7.46,3.96-15.24,3.93-23.12v-0.8c-0.02-2.38-0.03-4.85,0.94-7.23c1.19-2.84,3.65-5.19,7.35-7.01
					c6.77-3.31,14.27-3.59,20.76-3.59l7.43,0.05c7.21,0,13.1-0.48,18.45-2.84c1.75-0.77,3.43-1.74,5.2-2.76
					c3.53-2.04,7.17-4.14,11.45-4.57l5.6-0.57l-4.22,3.72c-3.92,3.46-4.35,9.07-4.81,15.01c-0.24,3.13-0.49,6.37-1.27,9.4
					c-2.17,8.47-8.99,15.51-17.39,17.93c-0.62,0.18-1.25,0.34-1.89,0.49c-2.14,0.53-4.16,1.03-5.47,2.31
					c-0.79,0.76-1.36,1.84-1.96,2.99c-0.49,0.94-1,1.91-1.69,2.81c-2.71,3.64-7.03,5.05-11.58,6.28l-1.56,0.43
					c-10.75,3-21.86,6.09-32.04,10.28L438.17,112.68z M476.63,54.21c-6.09,0-13.09,0.25-19.17,3.22c-2.88,1.42-4.76,3.15-5.6,5.15
					c-0.69,1.7-0.68,3.71-0.67,5.83l0,0.81c0.03,8.29-1.36,16.48-4.14,24.33c-0.49,1.39-1.03,2.77-1.56,4.16
					c-1.23,3.18-2.42,6.24-3.06,9.36c9.55-3.69,19.69-6.52,29.53-9.26l1.57-0.44c3.93-1.06,7.62-2.25,9.65-4.96
					c0.54-0.72,0.96-1.53,1.38-2.33c0.71-1.34,1.43-2.73,2.64-3.9c2.02-1.96,4.73-2.63,7.12-3.22c0.59-0.15,1.18-0.29,1.76-0.46
					c7.18-2.07,13.03-8.1,14.88-15.35c0.7-2.73,0.94-5.81,1.17-8.78c0.34-4.49,0.7-9.08,2.61-12.95c-1.74,0.76-3.45,1.75-5.21,2.76
					c-1.78,1.03-3.62,2.09-5.55,2.94c-6.58,2.9-13.72,3.14-19.9,3.14L476.63,54.21z"/>
			</defs>
			<clipPath id="SVGID_76_">
				<use xlink:href="#SVGID_75_"  style="overflow:visible;"/>
			</clipPath>
			<path class="st39" d="M442.44,108.27c0,0,39.79-10,42.08-12.39c2.28-2.39,3.38-8.77,3.38-8.77s19.57-4.74,20.37-8
				c0.8-3.26,8.22-14.77,6.47-28c-1.75-13.22,12.45-11.2,12.45-11.2s-24.24,12.97-49.96,12.94s-26.94,9.23-26.94,9.23
				s-1.61,9.52-1.22,16.35c0.38,6.83-10.66,31.32-10.66,31.32L442.44,108.27z"/>
		</g>
		<g>
			<defs>
				<path id="SVGID_77_" d="M328.18,114.84L328.18,114.84c-1.3,0-2.65-0.76-3.62-2.03c-0.64-0.84-1.03-1.79-1.13-2.73
					c-11.8-3.75-22.6-10.98-30.56-20.47c-2.08-2.48-4.26-5.51-4.63-9.17c-0.17-1.82,0.11-3.54,0.39-5.2c0.2-1.2,0.39-2.33,0.4-3.43
					c0.01-2.7-1.06-5.45-2.19-8.36c-1.68-4.31-3.41-8.77-1.48-13.33c0.74-1.74,1.91-3.13,3.03-4.48c1.11-1.33,2.17-2.59,2.62-4.01
					c0.23-0.71,0.32-1.51,0.42-2.36c0.07-0.59,0.14-1.18,0.25-1.76c0.85-4.64,3.85-8.24,6.75-11.72c0.59-0.71,1.19-1.42,1.76-2.14
					c2.18-2.74,5.56-8.02,3.64-12.46l-2.77-6.43l5.54,4.29c3.63,2.81,5.3,7.02,6.92,11.1c1.53,3.83,2.97,7.45,5.88,9.63
					c0.42,0.32,0.88,0.61,1.34,0.91c1.59,1.03,3.38,2.19,4.18,4.29c0.82,2.14,0.23,4.21-0.3,6.04c-0.34,1.19-0.66,2.3-0.57,3.28
					c0.12,1.22,0.92,2.4,1.76,3.66c0.41,0.61,0.82,1.22,1.18,1.85c1.83,3.23,2.25,6.83,2.67,10.3c0.34,2.85,0.66,5.55,1.71,7.95
					c0.58,1.34,1.38,2.58,2.23,3.9c0.83,1.28,1.69,2.61,2.36,4.08c3.5,7.63,0.97,15.68-1.47,23.46c-1.22,3.87-2.48,7.88-2.94,11.72
					C331.25,113.88,329.61,114.84,328.18,114.84z M307.82,16.17c-0.52,3.08-2.14,6.39-4.8,9.73c-0.59,0.74-1.2,1.47-1.81,2.2
					c-2.72,3.26-5.29,6.34-5.97,10.06c-0.09,0.51-0.15,1.01-0.21,1.52c-0.12,0.99-0.23,2.01-0.57,3.05c-0.67,2.09-2,3.68-3.29,5.21
					c-1,1.19-1.94,2.32-2.47,3.57c-1.36,3.2,0.04,6.8,1.52,10.6c1.2,3.1,2.45,6.3,2.44,9.7c-0.01,1.4-0.23,2.72-0.45,4.01
					c-0.25,1.5-0.49,2.91-0.36,4.25c0.26,2.67,2.07,5.14,3.79,7.2c7.81,9.32,18.53,16.33,30.18,19.75l1.71,0.5l-0.48,1.72
					c-0.14,0.5,0.15,1.03,0.29,1.23c0.19,0.29,0.42,0.5,0.6,0.63c0.02-0.08,0.04-0.19,0.06-0.32c0.5-4.18,1.81-8.34,3.08-12.38
					c2.34-7.46,4.55-14.5,1.63-20.87c-0.57-1.23-1.32-2.39-2.11-3.62c-0.89-1.38-1.82-2.81-2.51-4.42c-1.26-2.89-1.63-5.98-1.99-8.97
					c-0.39-3.27-0.76-6.35-2.23-8.95c-0.31-0.55-0.67-1.08-1.03-1.62c-1.01-1.5-2.14-3.19-2.36-5.31c-0.17-1.67,0.29-3.25,0.69-4.64
					c0.42-1.46,0.79-2.73,0.4-3.74c-0.38-1-1.54-1.76-2.77-2.55c-0.53-0.34-1.05-0.68-1.54-1.05c-3.73-2.79-5.43-7.06-7.07-11.19
					C309.43,19.61,308.71,17.8,307.82,16.17z"/>
			</defs>
			<clipPath id="SVGID_78_">
				<use xlink:href="#SVGID_77_"  style="overflow:visible;"/>
			</clipPath>
			<path class="st40" d="M328.51,111.1c0,0-33.08-14.41-40.08-29.49l3.99-12.42c0,0-7.68-13.41-7.68-15.24s8.4-8.54,8.4-8.54
				l0.76-13.54c0,0,9.8-9.99,12.04-15.7s-4.85-13.19-4.85-13.19l14.71,24.24c0,0,1.77,4.16,6.67,5.88c4.9,1.71,0.37,9.18,0.37,9.18
				s-1.96,3.8,2.45,8.2c4.41,4.41,3.24,15.31,3.24,15.31s3.37,7.51,6.68,12.63C338.49,83.55,328.51,111.1,328.51,111.1z"/>
		</g>
		<g>
			<defs>
				<path id="SVGID_79_" d="M201,364.82l-1.76-2.14c-7.58-9.24-16.49-17.21-26.49-23.68l-0.66-0.42c-2.72-1.74-5.53-3.55-7.54-6.3
					c-6.8-9.34,0.17-21.7,3.48-26.58c0.72-1.06,1.47-2.12,2.22-3.18c4.27-6.05,8.68-12.3,8.43-19.24c-0.03-0.61-0.09-1.23-0.15-1.84
					c-0.11-1.19-0.23-2.43-0.14-3.71c0.06-0.74,0.08-1.78,0.1-2.97c0.09-4.49,0.23-8.09,1.09-10.12c1.19-2.84,2.9-4.73,4.41-6.41
					c0.96-1.07,1.81-2.01,2.42-3.06c-0.05-1.76,0.35-3.45,1.21-5.03l3.2-5.93l0.2,6.74c0.06,1.81-0.25,3.44-0.92,4.95
					c0.41,2.73,2.48,5.69,5.62,8l0.4,0.29c4.6,3.38,8.95,6.56,10.48,12.75c0.69,2.84,0.31,5.63-0.08,8.32
					c-0.27,1.93-0.52,3.75-0.38,5.5c0.34,4.37,3.01,8.08,5.84,12.01c2.13,2.95,4.32,6,5.62,9.5c3.81,10.24-0.76,20.95-5.77,31.05
					l-4.25,8.45c-1.71,3.4-3.46,6.89-5.34,10.59L201,364.82z M186.84,260.46c-0.06,0.06-0.11,0.12-0.17,0.18
					c-1.38,1.53-2.81,3.12-3.76,5.39c-0.65,1.56-0.74,5.91-0.8,8.79c-0.02,1.26-0.05,2.37-0.11,3.14c-0.07,0.99,0.03,2.02,0.14,3.12
					c0.07,0.68,0.13,1.36,0.16,2.04c0.3,8.17-4.47,14.93-9.08,21.47c-0.74,1.05-1.48,2.09-2.18,3.13
					c-2.25,3.31-9.16,14.72-3.56,22.41c1.62,2.21,4.02,3.75,6.57,5.39l0.67,0.43c9.54,6.18,18.13,13.67,25.54,22.31
					c1.42-2.81,2.77-5.5,4.1-8.14l4.25-8.45c4.65-9.38,8.92-19.29,5.61-28.17c-1.13-3.04-3.09-5.76-5.16-8.65
					c-2.99-4.16-6.09-8.46-6.51-13.84c-0.17-2.15,0.12-4.26,0.41-6.29c0.35-2.46,0.68-4.79,0.14-6.95c-1.21-4.91-4.7-7.46-9.1-10.7
					l-0.4-0.29c-2.56-1.88-4.52-4.1-5.74-6.44l-0.87,1.71L186.84,260.46z"/>
			</defs>
			<clipPath id="SVGID_80_">
				<use xlink:href="#SVGID_79_"  style="overflow:visible;"/>
			</clipPath>
			<path class="st41" d="M199.35,360.61c0,0-18.76-20.63-32.35-28.23c-13.59-7.6,7.71-33.5,7.71-33.5s6.07-9.37,5.97-16.53
				c-0.1-7.16-2.85-12.86,6.06-25.35c0,0,1.35-6.22,2.34-8.82s0-9.62,0-9.62s-9.47,17.09,16.09,36.96l-1.07,16.38
				c0,0,5.67,10.49,11.83,21.69C222.1,324.78,199.35,360.61,199.35,360.61z"/>
		</g>
		<g>
			<defs>
				<path id="SVGID_81_" d="M408.16,100.54l-1.4-0.46c-1.02-0.33-2.22-1.22-3.9-2.45c-1.68-1.24-3.78-2.78-6-3.94l-0.97-0.5
					c-1.81-0.91-3.86-1.94-5.17-3.92c-0.52-0.78-0.85-1.63-1.14-2.39c-0.13-0.33-0.26-0.66-0.4-0.97c-1.33-2.9-4.11-4.87-7.05-6.95
					c-1.58-1.12-3.22-2.28-4.68-3.63c-6.03-5.6-8.91-14.75-7.53-23.88c1.16-7.65,4.95-15.15,11.28-22.31
					c0.77-0.88,1.57-1.74,2.38-2.6c2.07-2.23,4.02-4.34,5.55-6.75c2.31-3.67,3.55-8.08,3.46-12.44l-0.04-2.2l2.17,0.39
					c4.42,0.79,7.93,4.76,8.16,9.24c0.04,0.76,0,1.54-0.05,2.33c-0.09,1.52-0.17,2.84,0.47,3.58c0.21,0.24,0.56,0.48,0.96,0.75
					c0.44,0.3,0.87,0.6,1.26,0.96c1.8,1.7,2.25,4.16,2.58,5.96c1.25,6.96,2.48,13.92,3.7,20.88c3.19,18.08,5.37,35.52-2.88,50.02
					L408.16,100.54z M396.1,9.87c-0.35,4.18-1.71,8.31-3.93,11.84c-1.7,2.7-3.86,5.03-5.95,7.29c-0.78,0.84-1.56,1.68-2.31,2.53
					c-5.87,6.63-9.37,13.52-10.42,20.46c-1.2,7.97,1.26,15.89,6.42,20.69c1.29,1.19,2.76,2.24,4.31,3.34c3.2,2.27,6.51,4.62,8.25,8.4
					c0.17,0.38,0.33,0.77,0.48,1.16c0.25,0.63,0.48,1.23,0.79,1.69c0.78,1.18,2.24,1.91,3.79,2.7l1.03,0.52
					c2.45,1.28,4.67,2.91,6.46,4.22c0.51,0.38,1.09,0.8,1.6,1.16c6.64-13.17,4.56-29.28,1.61-46.01c-1.23-6.95-2.45-13.91-3.7-20.86
					c-0.32-1.74-0.63-3.15-1.49-3.96c-0.24-0.22-0.54-0.42-0.83-0.61c-0.53-0.36-1.13-0.77-1.65-1.37c-1.61-1.87-1.47-4.26-1.35-6.18
					c0.04-0.65,0.09-1.3,0.05-1.92C399.13,12.89,397.86,10.94,396.1,9.87z"/>
			</defs>
			<clipPath id="SVGID_82_">
				<use xlink:href="#SVGID_81_"  style="overflow:visible;"/>
			</clipPath>
			<path class="st42" d="M408.88,99.26c0,0,7.15-24.1,4.44-28.26c0,0-5.79-45.02-6.88-45.61c-3.03-1.63-6.21-5.88-6.21-5.88v-8.57
				c0,0-5.72-4.72-7.71-5.79c0,0,1.75,6.7,0,11.02c0,0-8.74,14.4-9.9,14.99c0,0-21.18,21.56-6.54,39.84c0,0,10.56,9.97,13.47,11.69
				s2.54,5.33,2.54,5.33L408.88,99.26z"/>
		</g>
		<g>
			<defs>
				<path id="SVGID_83_" d="M513.99,149.54c-3.59,0-7.31-1.08-10.47-3.04l-0.44-0.27l-0.23-0.46c-2.38-4.78-2.57-10.81-0.55-16.96
					c1.75-5.33,4.75-9.97,7.66-14.46c5-7.71,10.59-15.43,19.09-17.78c2.38-0.65,4.79-0.82,7.12-0.98c0.85-0.06,1.7-0.12,2.54-0.2
					c7.19-0.66,13.72-3.02,18.9-6.81c1.6-1.17,3.18-2.54,4.72-3.87c4.19-3.64,8.54-7.41,14.26-8.17l4.69-0.62l-3.08,3.59
					c-4.63,5.39-5.91,13.46-3.19,20.07c0.18,0.45,0.38,0.88,0.58,1.32c0.56,1.23,1.13,2.49,1.42,3.94c1.17,5.8-2.86,10.8-5.37,13.26
					c-1.09,1.07-2.26,2.07-3.43,3.07c-2.16,1.84-4.19,3.58-5.69,5.76c-0.74,1.08-1.35,2.25-1.99,3.5c-0.66,1.3-1.36,2.63-2.22,3.89
					c-5.88,8.54-17.08,9.82-23.23,9.82l-3.56-0.05c-1.79,0-3.68,0.1-5.38,0.83c-0.86,0.38-1.7,0.94-2.58,1.52
					c-0.66,0.44-1.31,0.87-1.99,1.25C519.35,148.9,516.73,149.54,513.99,149.54z M505.87,143.7c4.43,2.55,10.1,2.93,13.94,0.83
					c0.59-0.33,1.17-0.72,1.74-1.1c0.97-0.65,1.98-1.32,3.13-1.82c3.01-1.3,6-1.16,8.69-1.11l1.7,0.03c5.44,0,15.31-1.08,20.26-8.26
					c0.74-1.07,1.34-2.25,1.99-3.5c0.67-1.3,1.36-2.64,2.23-3.9c1.76-2.57,4.08-4.55,6.32-6.46c1.1-0.94,2.21-1.88,3.24-2.9
					c1.6-1.57,5.23-5.69,4.36-9.97c-0.21-1.04-0.67-2.07-1.17-3.15c-0.22-0.48-0.43-0.95-0.63-1.44c-2.54-6.17-2.14-13.41,0.83-19.33
					c-2.71,1.4-5.21,3.57-7.8,5.82c-1.59,1.38-3.23,2.81-4.95,4.06c-5.7,4.18-12.86,6.77-20.69,7.49c-0.87,0.08-1.75,0.15-2.64,0.21
					c-2.26,0.16-4.39,0.3-6.41,0.86c-7.28,2.01-12.2,8.84-17.01,16.26c-2.78,4.3-5.66,8.74-7.26,13.62
					C504.11,134.91,504.16,139.89,505.87,143.7z"/>
			</defs>
			<clipPath id="SVGID_84_">
				<use xlink:href="#SVGID_83_"  style="overflow:visible;"/>
			</clipPath>
			<path class="st43" d="M502.69,145.89c0,0,11.02,6.52,23.76-3.6c0,0,19.8,0.9,22.29-2.53c0,0,7.1-3.67,11.76-13.22
				c0,0,11.77-10.8,13.11-13.85c0,0,4.67,3.56-2.14-20.44c0,0-0.48-14.55,9.82-16.34c0,0-17.37,8.74-27.16,17.44
				c0,0-9.55,3.06-27.18,6C526.94,99.35,500.24,113.32,502.69,145.89z"/>
		</g>
	</g>
	</svg>